<?xml version="1.0" encoding="UTF-8"?><svg id="a" xmlns="http://www.w3.org/2000/svg" viewBox="0 0 251.77 247.53"><defs><style>.b{fill:#66b032;}.c{fill:#4d2c88;}.d{fill:#b3d45e;}.e{fill:#442a72;}.f{fill:#151515;}</style></defs><path class="f" d="M66.27,31.73v-10.18h1.96v10.18h-1.96Zm11.85,.14c-.6,0-1.11-.11-1.53-.37-.45-.28-.79-.62-1.05-1.08v4.37h-1.93v-10.49h1.67v1.28c.28-.43,.65-.77,1.11-1.02,.43-.26,.94-.37,1.5-.37,.51,0,.96,.09,1.39,.28,.43,.2,.79,.48,1.11,.85,.31,.34,.57,.74,.74,1.22,.2,.45,.28,.94,.28,1.47,0,.71-.14,1.36-.43,1.96s-.68,1.05-1.16,1.39c-.51,.34-1.05,.51-1.7,.51h0Zm-.65-1.62c.31,0,.57-.06,.79-.2,.26-.11,.45-.28,.62-.48,.2-.23,.31-.45,.43-.74,.09-.26,.11-.54,.11-.82,0-.31-.03-.6-.14-.85-.09-.28-.26-.51-.43-.71-.2-.2-.43-.37-.68-.48-.26-.11-.51-.17-.82-.17-.17,0-.37,.06-.54,.11-.2,.06-.37,.14-.54,.26-.17,.11-.34,.23-.45,.4-.14,.14-.23,.31-.28,.48v1.73c.11,.28,.26,.54,.45,.77,.2,.2,.43,.4,.68,.51,.26,.14,.54,.2,.79,.2h0Zm5.22-8.99h1.93v8.08c0,.34,.06,.6,.17,.71,.11,.11,.28,.17,.48,.17,.14,0,.31,0,.45-.06,.17-.03,.31-.09,.45-.14l.26,1.47c-.26,.11-.57,.23-.91,.28-.34,.06-.65,.09-.94,.09-.6,0-1.08-.14-1.39-.48-.34-.31-.51-.77-.51-1.36v-8.76Zm8.05,10.6c-.6,0-1.13-.09-1.64-.28-.48-.23-.91-.48-1.25-.85-.34-.34-.6-.77-.79-1.22-.17-.45-.28-.94-.28-1.45,0-.71,.17-1.36,.48-1.96,.34-.57,.79-1.05,1.39-1.39,.6-.37,1.3-.54,2.13-.54s1.5,.17,2.1,.54c.57,.34,1.02,.82,1.33,1.39,.31,.6,.48,1.22,.48,1.9,0,.11-.03,.23-.03,.34s-.03,.2-.03,.28h-5.81c.06,.37,.17,.71,.34,.99,.2,.28,.43,.48,.71,.62,.31,.14,.62,.23,.96,.23,.37,0,.74-.09,1.08-.28,.34-.2,.57-.43,.68-.74l1.64,.45c-.17,.4-.43,.74-.77,1.02-.34,.28-.74,.54-1.19,.71-.48,.14-.96,.23-1.53,.23h0Zm-1.96-4.45h3.91c-.03-.37-.14-.71-.31-.96-.17-.28-.4-.51-.71-.65-.28-.14-.6-.23-.94-.23-.37,0-.68,.09-.96,.23-.28,.14-.51,.37-.68,.65-.17,.26-.28,.6-.31,.96h0Zm6.6,.6c0-.71,.14-1.36,.43-1.93,.28-.6,.68-1.05,1.19-1.39,.51-.34,1.08-.51,1.73-.51,.57,0,1.05,.14,1.5,.4,.45,.28,.79,.62,1.05,1.05v-4.37h1.93v8.31c0,.23,.03,.37,.09,.45,.06,.09,.2,.14,.34,.14v1.56c-.34,.09-.6,.11-.82,.11-.34,0-.62-.09-.85-.26-.23-.17-.34-.4-.37-.68l-.03-.48c-.28,.48-.65,.82-1.13,1.08-.45,.26-.96,.37-1.47,.37s-.99-.09-1.42-.28c-.45-.2-.82-.48-1.13-.82-.34-.34-.57-.77-.77-1.22-.17-.48-.26-.99-.26-1.53h0Zm5.9,.99v-1.76c-.11-.26-.26-.51-.45-.74-.23-.2-.45-.37-.71-.51-.26-.11-.51-.2-.77-.2-.31,0-.57,.09-.82,.2-.23,.11-.45,.28-.62,.48-.17,.23-.31,.45-.4,.74-.09,.26-.14,.54-.14,.85,0,.28,.06,.57,.17,.85,.09,.26,.23,.48,.43,.68s.43,.37,.65,.48c.26,.11,.54,.17,.85,.17,.17,0,.34-.03,.54-.09,.2-.09,.37-.17,.54-.26,.17-.11,.31-.26,.43-.4,.14-.17,.23-.34,.31-.51h0Zm6.75,2.86c-.48,0-.96-.09-1.36-.28-.43-.2-.79-.48-1.08-.82-.31-.37-.54-.77-.71-1.22-.14-.45-.23-.96-.23-1.47,0-.54,.09-1.05,.26-1.53,.17-.45,.4-.88,.71-1.22,.31-.37,.68-.65,1.11-.85,.43-.2,.91-.28,1.42-.28,.6,0,1.11,.11,1.53,.37,.45,.28,.82,.62,1.11,1.05v-1.3h1.67v7.11c0,.74-.17,1.36-.54,1.9-.37,.51-.85,.91-1.47,1.19-.65,.28-1.36,.43-2.15,.43s-1.5-.14-2.07-.4c-.57-.28-1.05-.65-1.45-1.16l1.05-1.02c.28,.37,.62,.62,1.08,.82,.43,.23,.88,.31,1.39,.31,.4,0,.77-.06,1.11-.2,.34-.14,.62-.37,.82-.65s.31-.68,.31-1.16v-.94c-.26,.43-.6,.77-1.05,.99-.45,.23-.94,.34-1.45,.34h0Zm.65-1.53c.2,0,.4-.03,.6-.09,.2-.09,.37-.17,.54-.28,.14-.11,.31-.26,.43-.4,.11-.17,.23-.34,.28-.48v-1.81c-.11-.28-.28-.54-.48-.77s-.43-.4-.68-.51c-.26-.11-.51-.2-.79-.2-.31,0-.57,.09-.82,.2-.23,.11-.43,.31-.6,.54-.17,.2-.31,.45-.4,.74-.09,.28-.14,.57-.14,.85,0,.31,.06,.6,.17,.88,.09,.26,.23,.48,.43,.68,.2,.23,.4,.37,.65,.48,.26,.11,.54,.17,.82,.17h0Zm8.99,1.53c-.6,0-1.16-.09-1.64-.28-.48-.23-.91-.48-1.25-.85-.34-.34-.6-.77-.79-1.22-.17-.45-.28-.94-.28-1.45,0-.71,.17-1.36,.48-1.96,.34-.57,.79-1.05,1.39-1.39,.6-.37,1.3-.54,2.1-.54s1.53,.17,2.13,.54c.57,.34,1.02,.82,1.33,1.39,.31,.6,.48,1.22,.48,1.9,0,.11-.03,.23-.03,.34s-.03,.2-.03,.28h-5.81c.06,.37,.14,.71,.34,.99,.2,.28,.43,.48,.71,.62,.31,.14,.62,.23,.94,.23,.4,0,.77-.09,1.11-.28s.57-.43,.68-.74l1.64,.45c-.17,.4-.43,.74-.77,1.02-.34,.28-.74,.54-1.19,.71-.48,.14-.96,.23-1.53,.23h0Zm-1.96-4.45h3.91c-.03-.37-.14-.71-.31-.96-.17-.28-.43-.51-.71-.65-.28-.14-.6-.23-.96-.23-.34,0-.65,.09-.94,.23-.28,.14-.51,.37-.68,.65-.17,.26-.28,.6-.31,.96h0Zm15,3.94c-.14,.09-.34,.14-.57,.23-.26,.09-.48,.17-.77,.23-.26,.03-.51,.06-.79,.06-.34,0-.68-.06-.96-.17-.28-.11-.54-.31-.71-.6-.17-.26-.26-.62-.26-1.05v-4.28h-.99v-1.47h.99v-2.44h1.9v2.44h1.59v1.47h-1.59v3.63c.03,.26,.09,.43,.23,.54,.14,.11,.31,.17,.51,.17s.4-.03,.57-.09c.2-.09,.37-.14,.48-.17l.37,1.5Zm4.39,.51c-.62,0-1.16-.09-1.67-.28-.48-.23-.88-.48-1.22-.85-.34-.37-.62-.77-.79-1.25-.17-.45-.28-.94-.28-1.45,0-.54,.11-1.02,.28-1.47,.17-.48,.45-.88,.79-1.25,.34-.34,.74-.62,1.22-.82,.51-.23,1.05-.31,1.67-.31s1.13,.09,1.62,.31c.48,.2,.91,.48,1.25,.82,.34,.37,.62,.77,.79,1.25,.17,.45,.26,.94,.26,1.47,0,.51-.09,.99-.26,1.45-.17,.48-.45,.88-.79,1.25-.34,.37-.74,.62-1.22,.85-.51,.2-1.05,.28-1.64,.28h0Zm-1.98-3.83c0,.43,.09,.82,.26,1.13,.17,.34,.43,.6,.71,.79,.31,.17,.62,.28,1.02,.28,.34,0,.68-.11,.96-.28,.31-.2,.54-.45,.71-.79,.2-.34,.28-.71,.28-1.16,0-.43-.09-.79-.28-1.13-.17-.34-.4-.6-.71-.79-.28-.17-.62-.28-.96-.28-.4,0-.71,.11-1.02,.31-.28,.17-.54,.45-.71,.77-.17,.34-.26,.74-.26,1.16h0Zm14.12,3.83c-.6,0-1.16-.09-1.64-.28-.48-.23-.91-.48-1.25-.85-.34-.37-.6-.79-.79-1.25-.17-.45-.28-.96-.28-1.47,0-.68,.17-1.33,.48-1.9,.34-.6,.79-1.05,1.39-1.42,.6-.34,1.28-.51,2.1-.51s1.5,.17,2.1,.54c.57,.34,1.02,.79,1.3,1.39l-1.87,.57c-.17-.28-.4-.48-.65-.65-.28-.14-.57-.23-.91-.23s-.68,.11-.99,.28c-.28,.2-.54,.45-.71,.77-.17,.34-.26,.74-.26,1.16,0,.45,.09,.82,.28,1.16,.17,.34,.4,.6,.71,.79,.28,.17,.62,.28,.96,.28,.26,0,.45-.06,.65-.11,.23-.09,.4-.2,.57-.31,.17-.14,.28-.31,.37-.48l1.87,.6c-.17,.37-.43,.71-.77,.99-.31,.28-.71,.54-1.16,.71-.43,.14-.94,.23-1.5,.23h0Zm9.07-5.98c-.57,0-1.11,.11-1.56,.34-.45,.23-.79,.54-.99,.96v4.54h-1.93v-7.43h1.79v1.53c.26-.51,.6-.94,.99-1.22,.43-.28,.85-.45,1.3-.48h.4v1.76Zm4.45,5.98c-.6,0-1.13-.09-1.62-.28-.48-.23-.91-.48-1.25-.85-.34-.34-.62-.77-.79-1.22-.2-.45-.28-.94-.28-1.45,0-.71,.14-1.36,.48-1.96,.31-.57,.77-1.05,1.36-1.39,.6-.37,1.3-.54,2.13-.54s1.53,.17,2.1,.54c.6,.34,1.05,.82,1.36,1.39,.31,.6,.45,1.22,.45,1.9v.34c-.03,.11-.03,.2-.03,.28h-5.81c.03,.37,.14,.71,.34,.99,.17,.28,.43,.48,.71,.62s.6,.23,.94,.23c.37,0,.74-.09,1.08-.28,.34-.2,.57-.43,.71-.74l1.64,.45c-.2,.4-.45,.74-.79,1.02-.34,.28-.74,.54-1.19,.71-.45,.14-.96,.23-1.53,.23h0Zm-1.96-4.45h3.94c-.06-.37-.14-.71-.34-.96-.17-.28-.4-.51-.68-.65-.28-.14-.62-.23-.96-.23s-.65,.09-.94,.23c-.28,.14-.51,.37-.68,.65-.2,.26-.28,.6-.34,.96h0Zm6.55,2.13c0-.48,.14-.91,.43-1.28,.26-.37,.65-.65,1.13-.85s1.05-.28,1.67-.28c.31,0,.65,.03,.96,.09,.31,.03,.6,.11,.85,.23v-.4c0-.48-.14-.85-.43-1.11s-.71-.37-1.25-.37c-.43,0-.82,.06-1.19,.2-.37,.14-.77,.37-1.16,.65l-.62-1.28c.51-.31,.99-.57,1.53-.74,.51-.14,1.08-.23,1.64-.23,1.08,0,1.9,.26,2.49,.79,.6,.51,.91,1.28,.91,2.27v2.35c0,.2,.03,.34,.09,.43,.09,.09,.2,.14,.37,.14v1.56c-.17,.03-.34,.06-.48,.09-.11,.03-.26,.03-.34,.03-.37,0-.68-.09-.88-.26s-.31-.4-.37-.62l-.03-.4c-.31,.43-.74,.74-1.22,.96-.48,.23-.99,.34-1.5,.34-.48,0-.94-.09-1.33-.28s-.71-.48-.94-.85c-.23-.34-.34-.74-.34-1.19h0Zm4.68,.37c.11-.11,.2-.23,.26-.34,.09-.11,.11-.2,.11-.31v-.74c-.23-.09-.48-.17-.74-.2-.28-.06-.54-.09-.77-.09-.51,0-.91,.11-1.22,.31-.34,.2-.48,.48-.48,.82,0,.2,.03,.37,.14,.54s.26,.31,.45,.4c.2,.11,.45,.17,.74,.17s.57-.06,.82-.17c.28-.11,.51-.23,.68-.4h0Zm8.5,1.45c-.17,.09-.34,.14-.6,.23-.23,.09-.45,.17-.74,.23-.26,.03-.51,.06-.79,.06-.34,0-.68-.06-.96-.17-.31-.11-.54-.31-.71-.6-.17-.26-.26-.62-.26-1.05v-4.28h-.99v-1.47h.99v-2.44h1.9v2.44h1.59v1.47h-1.59v3.63c.03,.26,.09,.43,.23,.54,.14,.11,.31,.17,.51,.17s.4-.03,.57-.09c.2-.09,.34-.14,.48-.17l.37,1.5Zm4.39,.51c-.6,0-1.16-.09-1.64-.28-.48-.23-.91-.48-1.25-.85-.34-.34-.6-.77-.79-1.22-.17-.45-.28-.94-.28-1.45,0-.71,.17-1.36,.48-1.96,.34-.57,.79-1.05,1.39-1.39,.6-.37,1.3-.54,2.1-.54s1.53,.17,2.13,.54c.57,.34,1.02,.82,1.33,1.39,.31,.6,.48,1.22,.48,1.9,0,.11-.03,.23-.03,.34s-.03,.2-.03,.28h-5.81c.06,.37,.14,.71,.34,.99,.2,.28,.43,.48,.71,.62,.31,.14,.62,.23,.94,.23,.4,0,.77-.09,1.11-.28,.34-.2,.57-.43,.68-.74l1.64,.45c-.17,.4-.43,.74-.77,1.02-.34,.28-.74,.54-1.19,.71-.48,.14-.96,.23-1.53,.23h0Zm-1.96-4.45h3.91c-.03-.37-.14-.71-.31-.96-.17-.28-.43-.51-.71-.65-.28-.14-.6-.23-.96-.23-.34,0-.65,.09-.94,.23-.28,.14-.51,.37-.68,.65-.17,.26-.28,.6-.31,.96h0Zm-113.05,22.03c0-.48,.11-.91,.4-1.28,.28-.37,.65-.62,1.13-.82,.48-.2,1.05-.31,1.67-.31,.31,0,.65,.03,.96,.09,.34,.03,.62,.11,.85,.23v-.4c0-.48-.14-.85-.43-1.11-.28-.26-.71-.37-1.25-.37-.43,0-.79,.06-1.19,.23-.37,.14-.77,.34-1.16,.62l-.62-1.28c.51-.31,1.02-.57,1.53-.74,.51-.14,1.08-.23,1.64-.23,1.08,0,1.9,.26,2.49,.79,.6,.51,.91,1.28,.91,2.27v2.35c0,.2,.03,.34,.11,.43,.06,.09,.17,.14,.34,.14v1.56c-.17,.03-.34,.06-.45,.09-.14,.03-.26,.03-.37,.03-.37,0-.68-.09-.85-.26-.2-.17-.34-.4-.37-.62l-.06-.4c-.31,.43-.74,.74-1.22,.96s-.99,.34-1.47,.34c-.51,0-.96-.09-1.36-.28s-.71-.48-.94-.85c-.23-.34-.31-.74-.31-1.19h0Zm4.65,.37c.11-.11,.2-.23,.28-.34,.06-.11,.09-.2,.09-.28v-.77c-.23-.09-.48-.14-.74-.2-.28-.06-.54-.09-.77-.09-.51,0-.91,.11-1.22,.31-.34,.2-.48,.48-.48,.82,0,.2,.06,.37,.14,.54,.11,.17,.26,.31,.45,.43,.23,.09,.45,.14,.74,.14s.57-.06,.85-.17c.26-.11,.48-.23,.65-.4h0Zm13.12-5.61h1.81l-3.15,7.43h-1.59l-1.28-3.17-1.22,3.17h-1.64l-3.12-7.43h1.81l2.24,5.61,.88-2.41-1.3-3.2h1.59l.77,2.3,.79-2.3h1.59l-1.3,3.2,.88,2.41,2.24-5.61Zm2.01,5.24c0-.48,.11-.91,.4-1.28,.28-.37,.65-.62,1.13-.82,.48-.2,1.05-.31,1.67-.31,.31,0,.65,.03,.96,.09,.34,.03,.62,.11,.85,.23v-.4c0-.48-.14-.85-.43-1.11-.28-.26-.71-.37-1.25-.37-.43,0-.79,.06-1.19,.23-.37,.14-.77,.34-1.16,.62l-.62-1.28c.51-.31,1.02-.57,1.53-.74,.51-.14,1.08-.23,1.64-.23,1.08,0,1.9,.26,2.49,.79,.6,.51,.91,1.28,.91,2.27v2.35c0,.2,.03,.34,.11,.43,.06,.09,.17,.14,.34,.14v1.56c-.17,.03-.34,.06-.45,.09-.14,.03-.26,.03-.37,.03-.37,0-.65-.09-.85-.26s-.34-.4-.37-.62l-.06-.4c-.31,.43-.74,.74-1.22,.96s-.99,.34-1.47,.34c-.51,0-.96-.09-1.36-.28s-.71-.48-.94-.85c-.23-.34-.31-.74-.31-1.19h0Zm4.65,.37c.11-.11,.2-.23,.28-.34,.06-.11,.09-.2,.09-.28v-.77c-.23-.09-.48-.14-.74-.2-.28-.06-.54-.09-.77-.09-.51,0-.91,.11-1.22,.31-.34,.2-.48,.48-.48,.82,0,.2,.06,.37,.14,.54,.11,.17,.26,.31,.48,.43,.2,.09,.43,.14,.71,.14s.57-.06,.85-.17c.26-.11,.48-.23,.65-.4h0Zm8.56-4.03c-.6,0-1.11,.11-1.56,.34s-.79,.54-.99,.96v4.54h-1.93v-7.43h1.76v1.53c.28-.51,.62-.94,1.02-1.22,.43-.28,.85-.45,1.3-.48h.4v1.76Zm4.45,5.98c-.6,0-1.13-.09-1.62-.28-.51-.2-.91-.48-1.25-.85-.37-.34-.62-.77-.82-1.22-.17-.45-.26-.94-.26-1.45,0-.71,.14-1.36,.48-1.96,.31-.57,.77-1.05,1.36-1.39,.6-.37,1.3-.54,2.13-.54s1.5,.17,2.1,.54c.6,.34,1.02,.82,1.33,1.39,.31,.6,.48,1.22,.48,1.9,0,.11,0,.23-.03,.34,0,.11,0,.2-.03,.28h-5.81c.06,.37,.17,.71,.34,.99,.2,.28,.43,.48,.74,.62,.28,.14,.6,.23,.94,.23,.37,0,.74-.09,1.08-.28s.57-.43,.68-.74l1.67,.45c-.2,.4-.45,.74-.79,1.02-.34,.31-.74,.54-1.19,.71-.45,.17-.96,.23-1.53,.23h0Zm-1.96-4.45h3.94c-.06-.37-.17-.68-.34-.96-.17-.28-.4-.48-.68-.65-.31-.14-.62-.23-.96-.23s-.65,.09-.94,.23c-.28,.17-.51,.37-.71,.65-.17,.28-.28,.6-.31,.96h0Zm14.06,4.31h-1.93v-4.14c0-.6-.11-1.02-.31-1.3-.23-.28-.51-.4-.88-.4-.26,0-.51,.06-.79,.17-.26,.14-.48,.31-.71,.57-.2,.23-.37,.48-.45,.77v4.34h-1.93v-7.43h1.73v1.39c.2-.31,.45-.6,.74-.82,.31-.23,.65-.4,1.02-.51,.4-.11,.82-.17,1.25-.17,.45,0,.85,.09,1.13,.26,.31,.14,.54,.37,.71,.65,.14,.28,.26,.6,.31,.94,.09,.37,.11,.71,.11,1.08v4.62Zm5.16,.14c-.62,0-1.16-.09-1.64-.28-.48-.2-.91-.48-1.25-.85-.34-.34-.6-.77-.79-1.22s-.28-.94-.28-1.45c0-.71,.17-1.36,.48-1.96,.31-.57,.79-1.05,1.39-1.39,.6-.37,1.3-.54,2.1-.54s1.53,.17,2.13,.54c.57,.34,1.02,.82,1.33,1.39,.31,.6,.45,1.22,.45,1.9v.34c-.03,.11-.03,.2-.03,.28h-5.81c.03,.37,.14,.71,.34,.99,.17,.28,.43,.48,.71,.62,.28,.14,.6,.23,.94,.23,.4,0,.74-.09,1.08-.28,.34-.2,.6-.43,.71-.74l1.64,.45c-.17,.4-.43,.74-.77,1.02-.34,.31-.74,.54-1.22,.71-.45,.17-.96,.23-1.5,.23h0Zm-1.98-4.45h3.94c-.03-.37-.14-.68-.31-.96-.2-.28-.43-.48-.71-.65-.28-.14-.6-.23-.96-.23-.34,0-.65,.09-.94,.23-.28,.17-.51,.37-.68,.65-.17,.28-.28,.6-.34,.96h0Zm9.84,4.45c-.62,0-1.25-.09-1.81-.31-.6-.2-1.11-.51-1.5-.94l.68-1.25c.45,.37,.88,.65,1.33,.82,.43,.17,.85,.26,1.25,.26,.37,0,.68-.06,.88-.2,.23-.11,.34-.31,.34-.57,0-.2-.06-.34-.17-.43-.14-.11-.31-.2-.54-.26-.23-.09-.51-.17-.85-.26-.57-.2-1.02-.37-1.39-.54-.37-.17-.65-.37-.85-.65-.17-.26-.28-.57-.28-.99,0-.48,.14-.91,.4-1.25,.26-.37,.6-.65,1.05-.85,.45-.2,.99-.28,1.59-.28,.54,0,1.05,.09,1.53,.26s.91,.43,1.3,.79l-.77,1.22c-.4-.28-.77-.51-1.11-.65-.34-.14-.68-.2-1.05-.2-.2,0-.37,.03-.57,.06-.17,.06-.31,.14-.43,.26-.11,.09-.17,.26-.17,.45,0,.17,.06,.31,.17,.43,.09,.09,.26,.17,.45,.26,.2,.06,.45,.14,.77,.26,.6,.17,1.11,.34,1.5,.51,.43,.17,.74,.4,.96,.65,.2,.26,.31,.62,.31,1.08,0,.74-.28,1.3-.82,1.73-.54,.4-1.28,.6-2.21,.6h0Z"/><path class="f" d="M137.57,51.77c-.62,0-1.25-.09-1.81-.31-.6-.2-1.11-.51-1.53-.94l.71-1.25c.45,.37,.88,.65,1.33,.82,.43,.17,.85,.26,1.25,.26,.37,0,.65-.06,.88-.2,.23-.11,.34-.31,.34-.57,0-.2-.06-.34-.17-.43-.14-.11-.31-.2-.54-.26-.26-.09-.54-.17-.85-.26-.57-.2-1.02-.37-1.39-.54-.4-.17-.65-.37-.85-.65-.2-.26-.28-.57-.28-.99,0-.48,.14-.91,.4-1.25,.23-.37,.6-.65,1.05-.85,.45-.2,.99-.28,1.59-.28,.54,0,1.05,.09,1.53,.26s.91,.43,1.3,.79l-.77,1.22c-.4-.28-.77-.51-1.11-.65-.34-.14-.68-.2-1.05-.2-.2,0-.37,.03-.57,.06-.17,.06-.31,.14-.43,.26-.11,.09-.17,.26-.17,.45,0,.17,.06,.31,.17,.43,.09,.09,.26,.17,.45,.26,.2,.06,.45,.14,.74,.26,.62,.17,1.13,.34,1.53,.51,.43,.17,.74,.4,.94,.65,.23,.26,.34,.62,.34,1.08,0,.74-.28,1.3-.82,1.73-.57,.4-1.28,.6-2.21,.6h0Zm7.26-2.32c0-.48,.14-.91,.4-1.28,.28-.37,.65-.62,1.13-.82,.51-.2,1.05-.31,1.7-.31,.31,0,.62,.03,.94,.09,.34,.03,.62,.11,.85,.23v-.4c0-.48-.14-.85-.43-1.11-.28-.26-.68-.37-1.25-.37-.4,0-.79,.06-1.16,.23-.4,.14-.77,.34-1.19,.62l-.62-1.28c.51-.31,1.02-.57,1.53-.74,.54-.14,1.08-.23,1.64-.23,1.08,0,1.9,.26,2.49,.79,.62,.51,.91,1.28,.91,2.27v2.35c0,.2,.03,.34,.11,.43,.06,.09,.2,.14,.34,.14v1.56c-.17,.03-.31,.06-.45,.09-.14,.03-.26,.03-.37,.03-.37,0-.65-.09-.85-.26s-.31-.4-.37-.62l-.06-.4c-.31,.43-.71,.74-1.22,.96-.48,.23-.96,.34-1.47,.34s-.96-.09-1.33-.28c-.4-.2-.71-.48-.94-.85-.23-.34-.34-.74-.34-1.19h0Zm4.68,.37l.26-.34c.06-.11,.09-.2,.09-.28v-.77c-.23-.09-.48-.14-.74-.2-.26-.06-.51-.09-.77-.09-.48,0-.91,.11-1.22,.31s-.48,.48-.48,.82c0,.2,.06,.37,.17,.54,.09,.17,.26,.31,.45,.43,.2,.09,.43,.14,.71,.14s.57-.06,.85-.17c.28-.11,.51-.23,.68-.4h0Zm8.33,1.96c-.57,0-1.08-.11-1.53-.37-.45-.26-.79-.62-1.08-1.08v1.3h-1.67v-10.46h1.93v4.37c.28-.45,.62-.79,1.05-1.05,.45-.28,.96-.4,1.53-.4,.48,0,.94,.09,1.33,.31,.4,.2,.77,.48,1.05,.82,.28,.37,.51,.79,.68,1.25,.14,.45,.23,.96,.23,1.47,0,.54-.09,1.05-.26,1.5-.2,.45-.43,.88-.74,1.22-.34,.37-.71,.62-1.13,.82s-.88,.28-1.39,.28h0Zm-.54-1.62c.31,0,.6-.06,.85-.17,.26-.14,.48-.28,.65-.48,.2-.2,.34-.43,.43-.71,.11-.26,.17-.54,.17-.82,0-.4-.09-.77-.26-1.13-.17-.34-.4-.6-.68-.82-.31-.2-.65-.28-1.05-.28-.26,0-.54,.06-.79,.17-.26,.14-.48,.31-.65,.51-.2,.23-.37,.48-.48,.74v1.76c.06,.2,.14,.37,.28,.51,.11,.14,.28,.28,.45,.4,.17,.09,.34,.17,.54,.26,.17,.06,.37,.09,.54,.09h0Zm8.82,1.62c-.6,0-1.16-.09-1.64-.28s-.91-.48-1.25-.85c-.34-.37-.6-.77-.77-1.25-.2-.45-.28-.94-.28-1.45s.09-1.02,.28-1.47c.17-.45,.43-.88,.77-1.25,.34-.34,.77-.62,1.25-.82,.48-.23,1.05-.31,1.64-.31s1.16,.09,1.64,.31c.48,.2,.91,.48,1.25,.82,.34,.37,.6,.79,.79,1.25,.17,.45,.26,.96,.26,1.47s-.09,.99-.26,1.45c-.2,.48-.45,.88-.79,1.25s-.74,.65-1.22,.85c-.51,.2-1.05,.28-1.67,.28h0Zm-1.96-3.83c0,.43,.09,.82,.26,1.13,.17,.34,.43,.6,.71,.79s.62,.28,.99,.28,.71-.11,.99-.28c.31-.2,.54-.45,.71-.79,.2-.34,.28-.71,.28-1.16,0-.4-.09-.79-.28-1.13-.17-.34-.4-.6-.71-.79-.28-.17-.62-.26-.99-.26s-.71,.09-.99,.28c-.28,.17-.54,.45-.71,.77-.17,.34-.26,.74-.26,1.16h0Zm7.11,.91v-4.65h1.93v4.22c0,.57,.09,.99,.31,1.3,.2,.28,.51,.43,.94,.43,.26,0,.48-.06,.74-.14,.23-.11,.45-.26,.68-.45,.2-.2,.37-.45,.51-.74v-4.62h1.93v5.3c0,.2,.03,.34,.11,.43,.06,.09,.17,.14,.34,.14v1.56c-.2,.03-.34,.06-.48,.09h-.34c-.34,0-.62-.06-.85-.23-.2-.14-.34-.37-.37-.65l-.06-.6c-.34,.51-.77,.91-1.28,1.16-.54,.26-1.11,.37-1.76,.37-.77,0-1.36-.23-1.76-.74-.4-.48-.6-1.22-.6-2.18h0Zm13.41,2.41c-.17,.09-.37,.14-.6,.23-.23,.09-.48,.17-.74,.23-.26,.06-.51,.06-.79,.06-.34,0-.68-.06-.96-.17-.31-.11-.54-.31-.71-.6-.2-.26-.28-.62-.28-1.05v-4.28h-.99v-1.47h.99v-2.44h1.93v2.44h1.59v1.47h-1.59v3.63c0,.26,.09,.43,.23,.54,.11,.11,.28,.17,.48,.17s.4-.03,.6-.09c.2-.09,.34-.14,.45-.17l.4,1.5ZM30.64,91.45v-5.67h-.99v-1.45h.99v-.45c0-.62,.11-1.16,.31-1.62s.48-.82,.88-1.08c.37-.23,.82-.37,1.3-.37,.31,0,.62,.06,.94,.11,.31,.09,.62,.2,.94,.34l-.4,1.45c-.14-.09-.31-.14-.51-.2-.17-.06-.37-.09-.54-.09-.31,0-.57,.11-.74,.37-.17,.23-.26,.54-.26,.99v.54h1.81v1.45h-1.81v5.67h-1.93Zm8.22,.14c-.62,0-1.16-.11-1.64-.31-.51-.2-.91-.48-1.25-.85-.34-.37-.6-.77-.79-1.22-.17-.48-.26-.96-.26-1.47s.09-1.02,.26-1.47c.2-.45,.45-.88,.79-1.22,.34-.37,.74-.65,1.25-.85,.48-.2,1.02-.31,1.64-.31s1.16,.11,1.64,.31c.48,.2,.88,.48,1.22,.85,.37,.34,.62,.77,.79,1.22,.17,.45,.26,.96,.26,1.47s-.09,.99-.26,1.47c-.17,.45-.43,.85-.77,1.22-.34,.37-.77,.65-1.25,.85-.48,.2-1.05,.31-1.64,.31h0Zm-1.98-3.86c0,.43,.09,.82,.28,1.16,.17,.31,.4,.57,.68,.77,.31,.2,.65,.28,1.02,.28s.68-.09,.99-.28c.28-.2,.51-.45,.71-.79,.17-.34,.26-.71,.26-1.13s-.09-.82-.26-1.16c-.2-.34-.43-.6-.71-.77-.31-.2-.62-.28-.99-.28s-.71,.09-1.02,.28c-.28,.2-.51,.45-.68,.79-.2,.31-.28,.71-.28,1.13h0Zm11.68-2.15c-.6,0-1.11,.11-1.56,.34-.48,.23-.79,.54-.99,.96v4.56h-1.93v-7.46h1.76v1.53c.26-.51,.6-.91,1.02-1.22,.4-.28,.85-.45,1.3-.48h.26c.06,0,.09,0,.14,.03v1.73Zm7.65,6.01c-.6,0-1.16-.11-1.64-.31-.48-.2-.91-.48-1.25-.85-.34-.37-.6-.77-.77-1.22-.2-.48-.28-.96-.28-1.47s.09-1.02,.28-1.47c.17-.45,.43-.88,.77-1.22,.34-.37,.77-.65,1.25-.85,.48-.2,1.05-.31,1.64-.31s1.16,.11,1.64,.31c.48,.2,.91,.48,1.25,.85,.34,.34,.6,.77,.79,1.22,.17,.45,.26,.96,.26,1.47s-.09,.99-.26,1.47c-.2,.45-.45,.85-.79,1.22-.34,.37-.74,.65-1.25,.85-.48,.2-1.02,.31-1.64,.31h0Zm-1.96-3.86c0,.43,.09,.82,.26,1.16,.17,.31,.4,.57,.71,.77,.28,.2,.62,.28,.99,.28s.71-.09,.99-.28c.31-.2,.54-.45,.71-.79s.28-.71,.28-1.13-.11-.82-.28-1.16c-.17-.34-.4-.6-.71-.77-.28-.2-.62-.28-.99-.28s-.71,.09-.99,.28c-.31,.2-.54,.45-.71,.79-.17,.31-.26,.71-.26,1.13h0Zm11.68,3.86c-.57,0-1.08-.14-1.53-.4-.45-.26-.79-.62-1.05-1.05v4.34h-1.93v-10.49h1.7v1.3c.28-.45,.65-.79,1.08-1.05,.45-.26,.94-.37,1.5-.37,.51,0,.96,.11,1.39,.31s.82,.45,1.13,.82c.31,.34,.54,.77,.74,1.22,.17,.45,.26,.94,.26,1.47,0,.71-.14,1.36-.43,1.96-.28,.6-.65,1.05-1.16,1.39-.48,.37-1.05,.54-1.7,.54h0Zm-.65-1.64c.31,0,.57-.06,.82-.2,.23-.11,.45-.28,.62-.48,.17-.23,.31-.45,.4-.71,.09-.28,.14-.57,.14-.85,0-.31-.06-.6-.17-.85-.09-.26-.23-.51-.43-.71-.2-.2-.43-.34-.68-.45-.23-.11-.51-.17-.82-.17-.17,0-.34,.03-.54,.09-.2,.06-.37,.14-.54,.26-.17,.11-.31,.26-.45,.4-.14,.14-.23,.31-.28,.48v1.76c.11,.26,.28,.51,.48,.74,.2,.23,.43,.4,.68,.51,.26,.14,.51,.2,.77,.2h0Zm9.64,1.11c-.14,.09-.34,.17-.57,.26-.23,.09-.48,.14-.74,.2-.28,.06-.54,.09-.79,.09-.37,0-.68-.09-.99-.2-.28-.11-.54-.31-.71-.6-.17-.26-.26-.62-.26-1.05v-4.28h-.99v-1.47h.99v-2.44h1.9v2.44h1.59v1.47h-1.59v3.63c.03,.26,.09,.43,.23,.54,.14,.11,.31,.17,.51,.17s.4-.03,.6-.09c.17-.06,.34-.11,.45-.17l.37,1.5Zm1.02,.4v-7.51h1.93v7.51h-1.93Zm0-8.56v-1.93h1.93v1.93h-1.93Zm15.31,8.56h-1.9v-4.17c0-.6-.11-1.02-.31-1.3-.2-.26-.48-.4-.85-.4s-.74,.14-1.08,.43c-.34,.28-.57,.65-.71,1.13v4.31h-1.93v-4.17c0-.6-.11-1.02-.31-1.3-.2-.26-.48-.4-.85-.4s-.74,.14-1.08,.43c-.34,.26-.57,.62-.71,1.11v4.34h-1.93v-7.46h1.73v1.39c.28-.48,.68-.85,1.13-1.11,.48-.26,1.05-.4,1.67-.4s1.11,.14,1.45,.45,.57,.68,.65,1.11c.31-.48,.71-.88,1.19-1.16,.45-.26,.99-.4,1.59-.4,.48,0,.85,.09,1.13,.26,.31,.17,.54,.37,.68,.65,.17,.28,.28,.6,.34,.96,.06,.34,.09,.68,.09,1.05v4.65Zm1.16-2.21c0-.48,.14-.91,.43-1.28,.26-.34,.65-.62,1.13-.82,.48-.2,1.05-.31,1.67-.31,.31,0,.65,.03,.96,.09,.34,.03,.62,.11,.85,.23v-.4c0-.48-.14-.85-.43-1.11-.28-.23-.71-.37-1.25-.37-.43,0-.82,.09-1.19,.23-.37,.14-.77,.34-1.16,.62l-.62-1.28c.51-.31,1.02-.57,1.53-.71,.51-.17,1.08-.26,1.64-.26,1.08,0,1.9,.26,2.49,.79,.6,.54,.91,1.28,.91,2.27v2.35c0,.2,.03,.34,.11,.43,.06,.09,.17,.14,.34,.14v1.59c-.17,.03-.34,.03-.45,.06-.14,.03-.26,.03-.37,.03-.37,0-.68-.09-.85-.26-.2-.17-.34-.37-.37-.62l-.06-.4c-.31,.43-.74,.74-1.22,.99-.48,.23-.99,.34-1.47,.34-.51,0-.96-.11-1.36-.31s-.71-.48-.94-.85c-.23-.34-.34-.74-.34-1.19h0Zm4.68,.37c.11-.11,.2-.23,.26-.31,.09-.11,.11-.23,.11-.31v-.74c-.23-.11-.48-.17-.74-.23-.28-.06-.54-.09-.77-.09-.51,0-.91,.11-1.22,.31-.34,.23-.48,.48-.48,.85,0,.17,.06,.34,.14,.51,.11,.17,.26,.31,.45,.43,.23,.09,.45,.14,.74,.14s.57-.06,.85-.17c.26-.09,.48-.23,.65-.4h0Zm4.08-8.65h1.9v8.11c0,.34,.06,.57,.17,.68,.11,.11,.28,.17,.48,.17,.14,0,.31,0,.48-.06,.14-.03,.31-.09,.43-.14l.26,1.47c-.26,.11-.57,.23-.91,.28-.34,.06-.65,.11-.94,.11-.6,0-1.05-.17-1.39-.48-.34-.34-.48-.79-.48-1.39v-8.76Zm10.54,10.63c-.51,0-.96-.11-1.39-.31-.4-.2-.77-.45-1.05-.82-.31-.34-.54-.77-.71-1.22-.17-.45-.26-.94-.26-1.47s.09-1.05,.28-1.5c.17-.48,.4-.91,.71-1.25,.31-.37,.68-.65,1.11-.85,.43-.2,.91-.28,1.42-.28,.57,0,1.08,.14,1.53,.4,.43,.26,.79,.6,1.08,1.05v-1.33h1.7v7.11c0,.74-.2,1.36-.54,1.9-.37,.51-.85,.94-1.5,1.22-.62,.26-1.33,.4-2.15,.4s-1.5-.11-2.04-.4c-.57-.28-1.05-.65-1.47-1.16l1.05-1.02c.31,.37,.65,.65,1.11,.85,.43,.2,.88,.28,1.36,.28,.43,0,.79-.06,1.13-.2,.34-.14,.62-.37,.82-.65,.2-.28,.31-.68,.31-1.16v-.94c-.26,.43-.6,.77-1.05,.99-.45,.26-.94,.37-1.45,.37h0Zm.65-1.53c.2,0,.4-.06,.6-.11,.2-.06,.37-.17,.54-.28,.14-.11,.28-.26,.43-.4,.11-.17,.2-.31,.28-.48v-1.81c-.11-.28-.28-.54-.48-.77s-.43-.4-.68-.51c-.26-.11-.54-.17-.79-.17-.31,0-.57,.06-.82,.17-.23,.14-.43,.31-.62,.54-.17,.23-.28,.48-.37,.74-.11,.28-.14,.57-.14,.85,0,.31,.06,.6,.14,.88,.11,.26,.26,.51,.45,.71,.17,.2,.4,.34,.65,.45,.26,.14,.51,.2,.82,.2h0Zm5.47-9.1h1.93v8.11c0,.34,.06,.57,.17,.68,.11,.11,.28,.17,.48,.17,.14,0,.31,0,.48-.06,.14-.03,.28-.09,.43-.14l.26,1.47c-.26,.11-.57,.23-.91,.28s-.65,.11-.94,.11c-.6,0-1.08-.17-1.39-.48-.34-.34-.51-.79-.51-1.39v-8.76Zm4.37,11.93c.17,.06,.31,.09,.45,.11,.17,.03,.28,.03,.4,.03,.17,0,.34-.03,.45-.14,.11-.09,.23-.23,.34-.48,.11-.23,.23-.54,.37-.96l-2.98-7.46h1.98l2.04,5.5,1.79-5.5h1.81l-3.15,8.96c-.11,.31-.28,.62-.51,.88-.26,.28-.54,.51-.88,.65-.37,.17-.74,.23-1.19,.23-.14,0-.28,0-.45-.03-.14-.03-.31-.06-.48-.11v-1.67Zm10.97-1.3c-.62,0-1.16-.11-1.67-.31-.48-.2-.91-.48-1.25-.85-.34-.37-.6-.79-.79-1.25-.17-.45-.28-.94-.28-1.45,0-.71,.17-1.36,.48-1.93,.34-.6,.79-1.05,1.39-1.39,.6-.37,1.28-.54,2.1-.54s1.5,.17,2.1,.54c.57,.34,1.02,.82,1.3,1.39l-1.87,.57c-.17-.28-.4-.48-.65-.62-.28-.17-.57-.23-.91-.23s-.68,.09-.99,.26c-.28,.2-.54,.45-.71,.79-.17,.31-.26,.71-.26,1.16,0,.43,.09,.79,.28,1.13,.17,.34,.4,.6,.71,.79,.28,.2,.62,.28,.96,.28,.26,0,.45-.03,.68-.11,.2-.09,.37-.17,.54-.31,.17-.14,.28-.28,.37-.45l1.87,.57c-.17,.37-.43,.71-.77,.99-.31,.31-.71,.54-1.16,.71-.43,.17-.94,.26-1.47,.26h0Zm7.99,0c-.62,0-1.16-.11-1.64-.31s-.91-.48-1.25-.85c-.34-.34-.6-.74-.79-1.22-.2-.45-.28-.94-.28-1.45,0-.71,.17-1.36,.48-1.93,.31-.6,.79-1.08,1.39-1.42,.6-.37,1.3-.54,2.1-.54s1.53,.17,2.13,.54c.57,.34,1.02,.82,1.33,1.39,.31,.6,.45,1.22,.45,1.9v.34c-.03,.11-.03,.23-.03,.28h-5.81c.03,.37,.14,.71,.34,.99,.17,.28,.43,.48,.71,.62,.28,.17,.6,.23,.94,.23,.4,0,.74-.09,1.08-.28,.34-.17,.6-.43,.71-.74l1.64,.45c-.17,.4-.43,.74-.77,1.02-.34,.31-.74,.54-1.22,.71-.45,.17-.96,.26-1.5,.26h0Zm-1.98-4.48h3.94c-.03-.37-.14-.68-.31-.96-.2-.28-.43-.48-.71-.65-.28-.14-.6-.23-.96-.23-.34,0-.65,.09-.94,.23-.28,.17-.51,.37-.68,.65-.17,.28-.28,.6-.34,.96h0Zm18.77,4.34h-1.93v-4.17c0-.6-.11-1.02-.31-1.3-.2-.26-.48-.4-.85-.4s-.74,.14-1.08,.43c-.34,.28-.57,.65-.71,1.13v4.31h-1.93v-4.17c0-.6-.11-1.02-.31-1.3-.2-.26-.48-.4-.85-.4s-.74,.14-1.08,.43c-.34,.26-.57,.62-.71,1.11v4.34h-1.93v-7.46h1.73v1.39c.28-.48,.68-.85,1.13-1.11,.48-.26,1.05-.4,1.67-.4s1.11,.14,1.45,.45c.34,.31,.57,.68,.68,1.11,.28-.48,.68-.88,1.16-1.16,.45-.26,.99-.4,1.59-.4,.48,0,.85,.09,1.13,.26,.31,.17,.54,.37,.68,.65,.17,.28,.28,.6,.34,.96,.06,.34,.11,.68,.11,1.05v4.65Zm1.67,0v-7.51h1.93v7.51h-1.93Zm0-8.56v-1.93h1.93v1.93h-1.93Zm7.14,8.7c-.6,0-1.16-.11-1.64-.31s-.91-.48-1.25-.85c-.34-.37-.62-.79-.79-1.25-.2-.45-.28-.94-.28-1.45,0-.71,.17-1.36,.48-1.93,.31-.6,.77-1.05,1.36-1.39,.6-.37,1.3-.54,2.13-.54s1.5,.17,2.07,.54c.6,.34,1.02,.82,1.33,1.39l-1.9,.57c-.14-.28-.37-.48-.65-.62-.26-.17-.54-.23-.88-.23-.37,0-.68,.09-.99,.26-.31,.2-.54,.45-.71,.79-.17,.31-.26,.71-.26,1.16,0,.43,.09,.79,.26,1.13s.43,.6,.71,.79c.31,.2,.62,.28,.99,.28,.23,0,.45-.03,.65-.11,.2-.09,.4-.17,.57-.31,.14-.14,.28-.28,.34-.45l1.9,.57c-.2,.37-.43,.71-.77,.99-.34,.31-.71,.54-1.16,.71-.45,.17-.94,.26-1.5,.26h0Zm11.54,0c-.62,0-1.16-.11-1.64-.31-.51-.2-.91-.48-1.25-.85-.34-.37-.62-.79-.79-1.25-.2-.45-.28-.94-.28-1.45,0-.71,.14-1.36,.48-1.93,.31-.6,.77-1.05,1.36-1.39,.6-.37,1.3-.54,2.1-.54s1.53,.17,2.1,.54c.6,.34,1.02,.82,1.3,1.39l-1.87,.57c-.17-.28-.37-.48-.65-.62-.26-.17-.57-.23-.88-.23-.37,0-.71,.09-.99,.26-.31,.2-.54,.45-.71,.79-.17,.31-.26,.71-.26,1.16,0,.43,.09,.79,.26,1.13,.17,.34,.4,.6,.71,.79,.28,.2,.62,.28,.99,.28,.23,0,.45-.03,.65-.11,.2-.09,.4-.17,.54-.31,.17-.14,.28-.28,.37-.45l1.87,.57c-.17,.37-.43,.71-.74,.99-.34,.31-.74,.54-1.16,.71-.45,.17-.96,.26-1.5,.26h0Z"/><path class="f" d="M186.29,91.59c-.62,0-1.16-.11-1.67-.31-.48-.2-.88-.48-1.22-.85-.34-.37-.62-.77-.79-1.22-.17-.48-.28-.96-.28-1.47s.11-1.02,.28-1.47c.17-.45,.45-.88,.79-1.22,.34-.37,.74-.65,1.22-.85,.51-.2,1.05-.31,1.67-.31s1.13,.11,1.62,.31c.51,.2,.91,.48,1.25,.85,.34,.34,.62,.77,.79,1.22,.17,.45,.26,.96,.26,1.47s-.09,.99-.26,1.47c-.17,.45-.45,.85-.79,1.22-.31,.37-.74,.65-1.22,.85-.48,.2-1.05,.31-1.64,.31h0Zm-1.98-3.86c0,.43,.09,.82,.26,1.16,.17,.31,.43,.57,.71,.77,.31,.2,.62,.28,1.02,.28,.34,0,.68-.09,.96-.28,.31-.2,.54-.45,.71-.79,.2-.34,.28-.71,.28-1.13s-.09-.82-.28-1.16c-.17-.34-.4-.6-.71-.77-.28-.2-.62-.28-.96-.28-.4,0-.71,.09-1.02,.28-.28,.2-.54,.45-.71,.79-.17,.31-.26,.71-.26,1.13h0Zm14.17,3.71h-1.93v-4.17c0-.6-.09-1.02-.31-1.3-.2-.26-.51-.4-.88-.4-.26,0-.51,.06-.77,.2-.28,.11-.51,.31-.71,.54-.23,.23-.37,.48-.48,.79v4.34h-1.9v-7.46h1.73v1.39c.2-.31,.43-.6,.74-.82,.28-.23,.62-.4,1.02-.51s.79-.17,1.22-.17c.48,0,.85,.09,1.16,.26,.28,.17,.54,.37,.68,.65,.17,.28,.28,.6,.34,.96,.06,.34,.09,.68,.09,1.05v4.65Zm6.15-.4c-.17,.09-.37,.17-.6,.26-.23,.09-.48,.14-.74,.2-.28,.06-.54,.09-.79,.09-.37,0-.68-.09-.99-.2-.28-.11-.54-.31-.71-.6-.17-.26-.26-.62-.26-1.05v-4.28h-.99v-1.47h.99v-2.44h1.93v2.44h1.56v1.47h-1.56v3.63c0,.26,.09,.43,.2,.54,.14,.11,.31,.17,.51,.17s.4-.03,.6-.09c.17-.06,.34-.11,.45-.17l.4,1.5Zm5.47-5.47c-.6,0-1.11,.11-1.56,.34-.48,.23-.79,.54-.99,.96v4.56h-1.93v-7.46h1.76v1.53c.28-.51,.62-.91,1.02-1.22,.43-.28,.85-.45,1.3-.48h.26c.06,0,.09,0,.14,.03v1.73Zm4.45,6.01c-.62,0-1.16-.11-1.67-.31-.48-.2-.88-.48-1.22-.85-.34-.37-.62-.77-.79-1.22-.17-.48-.28-.96-.28-1.47s.11-1.02,.28-1.47c.17-.45,.45-.88,.79-1.22,.34-.37,.74-.65,1.22-.85,.51-.2,1.05-.31,1.67-.31s1.13,.11,1.62,.31,.91,.48,1.25,.85c.34,.34,.62,.77,.79,1.22,.17,.45,.26,.96,.26,1.47s-.09,.99-.26,1.47c-.17,.45-.45,.85-.79,1.22-.34,.37-.74,.65-1.22,.85-.51,.2-1.05,.31-1.64,.31h0Zm-1.98-3.86c0,.43,.09,.82,.26,1.16,.17,.31,.43,.57,.71,.77,.31,.2,.62,.28,1.02,.28,.34,0,.68-.09,.96-.28,.31-.2,.54-.45,.71-.79,.2-.34,.28-.71,.28-1.13s-.09-.82-.28-1.16c-.17-.34-.4-.6-.71-.77-.28-.2-.62-.28-.96-.28-.4,0-.71,.09-1.02,.28-.28,.2-.54,.45-.71,.79-.17,.31-.26,.71-.26,1.13h0Zm7.17-6.77h1.93v8.11c0,.34,.06,.57,.17,.68,.11,.11,.28,.17,.48,.17,.14,0,.31,0,.45-.06,.17-.03,.31-.09,.45-.14l.26,1.47c-.26,.11-.57,.23-.91,.28-.34,.06-.65,.11-.94,.11-.6,0-1.08-.17-1.39-.48-.34-.34-.51-.79-.51-1.39v-8.76Zm-146.41,30.02c-.17,.06-.34,.14-.6,.23-.23,.09-.45,.14-.74,.2-.26,.06-.51,.09-.79,.09-.34,0-.68-.06-.96-.2-.28-.11-.54-.31-.71-.6-.17-.26-.26-.62-.26-1.05v-4.28h-.99v-1.47h.99v-2.44h1.9v2.44h1.59v1.47h-1.59v3.63c.03,.26,.09,.45,.23,.57,.14,.09,.31,.17,.51,.17s.4-.06,.57-.11c.2-.06,.37-.11,.48-.17l.37,1.53Zm4.37,.51c-.6,0-1.13-.11-1.64-.31-.48-.2-.88-.48-1.22-.85-.34-.34-.62-.77-.79-1.22-.17-.48-.28-.96-.28-1.47s.11-.99,.28-1.47c.17-.45,.45-.88,.79-1.22,.34-.37,.74-.65,1.22-.85,.51-.2,1.05-.31,1.64-.31s1.16,.11,1.64,.31c.48,.2,.91,.48,1.25,.85,.34,.34,.6,.77,.79,1.22,.17,.48,.26,.96,.26,1.47s-.09,.99-.26,1.47c-.2,.45-.45,.88-.79,1.22-.34,.37-.74,.65-1.22,.85-.51,.2-1.05,.31-1.67,.31h0Zm-1.96-3.86c0,.43,.09,.82,.26,1.16,.17,.31,.43,.6,.71,.77,.31,.2,.62,.28,.99,.28s.71-.09,.99-.28c.31-.2,.54-.45,.71-.79,.2-.34,.28-.71,.28-1.13s-.09-.82-.28-1.16c-.17-.31-.4-.6-.71-.77-.28-.2-.62-.28-.99-.28s-.68,.09-.99,.28c-.28,.2-.54,.45-.71,.79s-.26,.71-.26,1.13h0Zm15.11-2.15c-.6,0-1.11,.11-1.56,.34s-.79,.54-.99,.96v4.56h-1.93v-7.46h1.76v1.53c.28-.51,.62-.91,1.02-1.22,.43-.28,.85-.45,1.3-.48h.26c.06,0,.09,0,.14,.03v1.73Zm4.45,6.01c-.6,0-1.13-.11-1.64-.31-.48-.2-.88-.48-1.25-.85-.34-.34-.6-.74-.79-1.22-.17-.45-.26-.94-.26-1.45,0-.71,.14-1.36,.45-1.93,.34-.6,.79-1.08,1.39-1.42,.6-.37,1.3-.54,2.13-.54s1.5,.17,2.1,.54c.6,.34,1.02,.82,1.33,1.39,.31,.6,.48,1.22,.48,1.9,0,.11,0,.23-.03,.34,0,.11,0,.23-.03,.28h-5.81c.06,.4,.17,.71,.34,.99,.2,.28,.43,.48,.74,.62,.28,.17,.6,.23,.94,.23,.37,0,.74-.09,1.08-.28,.34-.17,.57-.43,.68-.74l1.67,.45c-.2,.4-.45,.74-.79,1.02-.34,.31-.74,.54-1.19,.71s-.96,.26-1.53,.26h0Zm-1.96-4.48h3.91c-.03-.37-.14-.68-.31-.96-.17-.28-.4-.48-.68-.65-.31-.14-.62-.23-.96-.23-.37,0-.68,.09-.96,.23-.26,.17-.51,.37-.68,.65-.17,.28-.28,.6-.31,.96h0Zm6.55,2.13c0-.48,.14-.91,.4-1.25,.28-.37,.65-.65,1.16-.85,.48-.2,1.05-.31,1.67-.31,.31,0,.62,.03,.96,.09,.31,.06,.6,.11,.85,.23v-.4c0-.48-.14-.82-.43-1.08-.28-.26-.71-.4-1.28-.4-.4,0-.79,.09-1.16,.23-.37,.14-.77,.34-1.19,.62l-.6-1.25c.48-.34,.99-.6,1.53-.74,.51-.17,1.05-.26,1.62-.26,1.08,0,1.93,.26,2.52,.79,.6,.54,.88,1.28,.88,2.27v2.35c0,.2,.06,.34,.11,.43,.09,.09,.2,.14,.37,.17v1.56c-.2,.03-.34,.06-.48,.06-.14,.03-.26,.03-.34,.03-.4,0-.68-.09-.88-.26s-.31-.37-.37-.62l-.03-.4c-.34,.43-.74,.77-1.22,.99-.51,.23-.99,.34-1.5,.34-.48,0-.94-.11-1.33-.31s-.71-.48-.94-.82c-.23-.37-.34-.77-.34-1.22h0Zm4.68,.37c.11-.11,.2-.2,.26-.31,.06-.11,.11-.23,.11-.31v-.74c-.26-.11-.48-.17-.77-.23-.26-.06-.51-.09-.77-.09-.48,0-.91,.11-1.22,.31-.31,.23-.48,.48-.48,.85,0,.17,.06,.37,.17,.51,.11,.17,.26,.31,.45,.43,.2,.09,.45,.14,.71,.14,.28,0,.57-.06,.85-.14,.28-.11,.51-.26,.68-.43h0Zm4.05-8.65h1.93v8.11c0,.34,.06,.57,.17,.68s.28,.2,.48,.2c.14,0,.31-.03,.45-.06,.17-.06,.31-.09,.43-.17l.28,1.47c-.28,.11-.57,.23-.91,.28-.34,.09-.65,.11-.94,.11-.6,0-1.08-.17-1.42-.48-.31-.34-.48-.79-.48-1.39v-8.76Zm4.56,10.49v-7.51h1.93v7.51h-1.93Zm0-8.56v-1.93h1.93v1.93h-1.93Zm3.15,7.37l4.14-4.9h-3.97v-1.36h6.04v1.19l-4.11,4.9h4.2v1.36h-6.29v-1.19Zm10.94,1.33c-.62,0-1.16-.11-1.64-.31-.48-.2-.91-.48-1.25-.85-.34-.34-.62-.74-.79-1.22-.2-.45-.28-.94-.28-1.45,0-.71,.17-1.36,.48-1.93,.31-.6,.77-1.08,1.39-1.42,.6-.37,1.28-.54,2.1-.54s1.53,.17,2.1,.54c.6,.34,1.05,.82,1.36,1.39,.31,.6,.45,1.22,.45,1.9v.34c-.03,.11-.03,.23-.03,.28h-5.81c.03,.4,.14,.71,.34,.99,.17,.28,.43,.48,.71,.62,.28,.17,.6,.23,.94,.23,.4,0,.74-.09,1.08-.28,.34-.17,.57-.43,.71-.74l1.64,.45c-.17,.4-.45,.74-.79,1.02-.34,.31-.74,.54-1.19,.71-.45,.17-.96,.26-1.5,.26h0Zm-1.98-4.48h3.94c-.03-.37-.14-.68-.31-.96-.2-.28-.43-.48-.71-.65-.28-.14-.6-.23-.96-.23-.34,0-.65,.09-.94,.23-.28,.17-.51,.37-.68,.65-.2,.28-.28,.6-.34,.96h0Zm15.02,3.97c-.17,.06-.37,.14-.6,.23-.23,.09-.48,.14-.74,.2-.26,.06-.54,.09-.79,.09-.34,0-.68-.06-.96-.2-.31-.11-.54-.31-.71-.6-.2-.26-.28-.62-.28-1.05v-4.28h-.99v-1.47h.99v-2.44h1.93v2.44h1.59v1.47h-1.59v3.63c0,.26,.09,.45,.23,.57,.11,.09,.28,.17,.48,.17s.4-.06,.6-.11c.2-.06,.34-.11,.45-.17l.4,1.53Zm7.99,.37h-1.93v-4.17c0-.57-.11-.99-.34-1.28s-.54-.43-.94-.43c-.23,0-.45,.06-.71,.2-.28,.11-.51,.31-.71,.54s-.37,.48-.45,.79v4.34h-1.93v-10.49h1.93v4.42c.28-.48,.65-.85,1.13-1.11,.48-.26,.99-.4,1.56-.4,.48,0,.88,.09,1.19,.26s.54,.4,.71,.65c.2,.28,.31,.6,.37,.94,.06,.37,.11,.71,.11,1.08v4.65Zm5.16,.14c-.62,0-1.16-.11-1.64-.31-.48-.2-.91-.48-1.25-.85-.34-.34-.6-.74-.79-1.22-.2-.45-.28-.94-.28-1.45,0-.71,.17-1.36,.48-1.93,.31-.6,.79-1.08,1.39-1.42,.6-.37,1.3-.54,2.1-.54s1.53,.17,2.13,.54c.57,.34,1.02,.82,1.33,1.39,.31,.6,.45,1.22,.45,1.9v.34c-.03,.11-.03,.23-.03,.28h-5.81c.03,.4,.14,.71,.34,.99,.17,.28,.43,.48,.71,.62,.28,.17,.6,.23,.94,.23,.4,0,.74-.09,1.08-.28,.34-.17,.6-.43,.71-.74l1.64,.45c-.17,.4-.43,.74-.77,1.02-.34,.31-.74,.54-1.22,.71-.45,.17-.96,.26-1.5,.26h0Zm-1.98-4.48h3.94c-.03-.37-.14-.68-.31-.96-.2-.28-.43-.48-.71-.65-.28-.14-.6-.23-.96-.23-.34,0-.65,.09-.94,.23-.28,.17-.51,.37-.68,.65-.17,.28-.28,.6-.34,.96h0Zm10.97,4.34v-5.67h-.96v-1.45h.96v-.45c0-.62,.11-1.16,.31-1.62,.23-.45,.51-.82,.88-1.05,.37-.26,.82-.4,1.33-.4,.31,0,.62,.06,.94,.11,.31,.09,.6,.2,.91,.34l-.37,1.45c-.17-.09-.31-.14-.51-.2s-.37-.06-.54-.06c-.34,0-.6,.11-.77,.34-.17,.23-.26,.57-.26,.99v.54h1.84v1.45h-1.84v5.67h-1.93Zm4.79-2.78v-4.68h1.93v4.25c0,.57,.09,.99,.31,1.28,.2,.28,.51,.43,.94,.43,.23,0,.48-.06,.74-.14,.23-.11,.45-.26,.65-.45,.23-.2,.4-.43,.54-.74v-4.62h1.93v5.3c0,.2,.03,.34,.09,.43,.09,.09,.2,.14,.37,.17v1.56c-.2,.03-.37,.03-.48,.06-.14,0-.26,.03-.34,.03-.37,0-.62-.09-.85-.26-.23-.14-.34-.37-.37-.62l-.06-.6c-.34,.48-.77,.88-1.28,1.13-.54,.26-1.11,.4-1.76,.4-.77,0-1.36-.26-1.76-.77-.4-.48-.6-1.22-.6-2.15h0Zm8.9-7.71h1.93v8.11c0,.34,.06,.57,.17,.68,.11,.11,.28,.2,.48,.2,.14,0,.31-.03,.48-.06,.14-.06,.28-.09,.43-.17l.26,1.47c-.26,.11-.57,.23-.91,.28-.34,.09-.65,.11-.94,.11-.6,0-1.05-.17-1.39-.48-.34-.34-.51-.79-.51-1.39v-8.76Zm4.56,0h1.93v8.11c0,.34,.06,.57,.17,.68,.11,.11,.26,.2,.45,.2,.17,0,.31-.03,.48-.06,.17-.06,.31-.09,.43-.17l.26,1.47c-.26,.11-.54,.23-.91,.28-.34,.09-.65,.11-.91,.11-.62,0-1.08-.17-1.42-.48-.31-.34-.48-.79-.48-1.39v-8.76Zm-114.49,30.53c-.6,0-1.11-.14-1.56-.4-.43-.26-.77-.62-1.02-1.05v4.34h-1.93v-10.49h1.67v1.3c.28-.45,.65-.79,1.11-1.05,.43-.23,.94-.37,1.5-.37,.51,0,.96,.11,1.39,.31,.43,.2,.79,.45,1.11,.82,.31,.34,.57,.77,.74,1.22,.2,.45,.28,.96,.28,1.47,0,.74-.14,1.39-.43,1.96-.28,.6-.68,1.05-1.16,1.42-.51,.34-1.08,.51-1.7,.51h0Zm-.65-1.64c.31,0,.57-.06,.79-.17,.26-.14,.45-.28,.62-.51,.2-.2,.31-.45,.43-.71,.09-.28,.11-.54,.11-.85s-.03-.6-.14-.85c-.09-.26-.26-.48-.43-.71-.2-.2-.43-.34-.68-.45-.26-.11-.54-.17-.82-.17-.17,0-.37,.03-.54,.09-.2,.06-.37,.14-.54,.26-.2,.11-.34,.26-.45,.4-.14,.14-.23,.31-.28,.48v1.76c.11,.26,.26,.51,.45,.74,.2,.23,.43,.4,.68,.51,.26,.14,.54,.2,.79,.2h0Zm8.7,1.64c-.6,0-1.16-.11-1.64-.31s-.91-.48-1.25-.85c-.34-.34-.6-.77-.77-1.22-.2-.48-.28-.96-.28-1.47s.09-.99,.28-1.47c.17-.45,.43-.88,.77-1.22,.34-.37,.77-.65,1.25-.85s1.05-.31,1.64-.31,1.16,.11,1.64,.31c.48,.2,.91,.48,1.25,.85,.34,.34,.6,.77,.77,1.22,.2,.48,.28,.96,.28,1.47s-.09,.99-.28,1.47c-.17,.45-.43,.88-.77,1.22-.34,.37-.77,.65-1.25,.85-.48,.2-1.02,.31-1.64,.31h0Zm-1.96-3.86c0,.43,.09,.82,.26,1.16,.17,.31,.4,.6,.71,.77,.28,.2,.62,.28,.99,.28s.71-.09,.99-.28,.54-.45,.71-.79,.26-.71,.26-1.13-.09-.79-.26-1.13-.43-.62-.71-.79c-.28-.2-.62-.28-.99-.28s-.71,.09-.99,.28c-.31,.2-.54,.45-.71,.79s-.26,.71-.26,1.13h0Zm11.57,3.34c-.17,.06-.37,.14-.6,.23-.23,.09-.48,.14-.74,.2-.26,.06-.51,.09-.79,.09-.34,0-.68-.06-.96-.2-.31-.11-.54-.31-.71-.6-.2-.26-.28-.62-.28-1.05v-4.28h-.99v-1.47h.99v-2.44h1.93v2.44h1.59v1.47h-1.59v3.63c0,.26,.09,.45,.23,.57,.11,.11,.28,.17,.48,.17s.4-.06,.6-.11,.34-.11,.45-.17l.4,1.53Zm4.39,.51c-.6,0-1.16-.11-1.64-.31s-.91-.48-1.25-.82c-.34-.37-.6-.77-.79-1.22-.2-.48-.28-.96-.28-1.47,0-.71,.17-1.36,.48-1.93,.31-.6,.79-1.08,1.39-1.42,.6-.37,1.3-.54,2.1-.54s1.53,.17,2.13,.54c.57,.34,1.02,.82,1.33,1.42,.31,.57,.45,1.19,.45,1.87v.34c0,.11-.03,.23-.03,.28h-5.81c.03,.4,.14,.71,.34,.99,.17,.28,.43,.51,.71,.65,.28,.14,.6,.2,.94,.2,.4,0,.77-.09,1.08-.28,.34-.17,.6-.43,.71-.74l1.64,.48c-.17,.37-.43,.71-.77,.99-.34,.31-.74,.54-1.22,.71-.45,.17-.96,.26-1.5,.26h0Zm-1.98-4.45h3.94c-.03-.4-.14-.71-.31-.99-.2-.28-.43-.48-.71-.65-.28-.14-.6-.23-.96-.23-.34,0-.65,.09-.94,.23-.28,.17-.51,.37-.68,.65-.17,.28-.28,.6-.34,.99h0Zm14.06,4.31h-1.93v-4.17c0-.6-.09-1.02-.31-1.3-.2-.26-.48-.4-.88-.4-.26,0-.51,.06-.77,.2-.26,.11-.51,.31-.71,.54-.23,.23-.37,.48-.45,.79v4.34h-1.93v-7.46h1.73v1.39c.2-.31,.43-.6,.74-.82,.28-.2,.62-.37,1.02-.51,.4-.11,.79-.17,1.22-.17,.48,0,.85,.09,1.16,.26,.31,.17,.54,.4,.68,.65,.17,.28,.28,.6,.34,.96,.06,.34,.09,.71,.09,1.05v4.65Zm6.15-.37c-.17,.06-.37,.14-.6,.23-.23,.09-.48,.14-.74,.2-.26,.06-.54,.09-.79,.09-.37,0-.68-.06-.99-.2-.28-.11-.51-.31-.71-.6-.17-.26-.26-.62-.26-1.05v-4.28h-.99v-1.47h.99v-2.44h1.93v2.44h1.56v1.47h-1.56v3.63c0,.26,.09,.45,.2,.57,.14,.11,.31,.17,.51,.17s.4-.06,.6-.11,.34-.11,.45-.17l.4,1.53Zm.99,.37v-7.51h1.93v7.51h-1.93Zm0-8.56v-1.9h1.93v1.9h-1.93Zm3.15,6.35c0-.48,.14-.91,.4-1.25,.28-.37,.65-.65,1.13-.85,.51-.2,1.05-.31,1.7-.31,.31,0,.62,.03,.96,.09,.31,.06,.6,.11,.82,.23v-.4c0-.48-.14-.82-.43-1.08-.26-.26-.68-.4-1.25-.4-.4,0-.79,.09-1.16,.23-.37,.14-.77,.34-1.19,.62l-.62-1.25c.51-.34,1.02-.57,1.53-.74,.54-.17,1.08-.26,1.64-.26,1.08,0,1.9,.26,2.52,.79,.6,.54,.88,1.28,.88,2.27v2.35c0,.2,.03,.34,.11,.43,.06,.09,.2,.14,.34,.17v1.56c-.17,.03-.31,.06-.45,.06-.14,.03-.26,.03-.34,.03-.4,0-.68-.09-.88-.26s-.31-.37-.37-.62l-.06-.4c-.31,.43-.71,.77-1.19,.99-.51,.23-.99,.34-1.5,.34s-.94-.11-1.33-.31-.71-.48-.94-.82c-.23-.37-.34-.77-.34-1.22h0Zm4.68,.4l.26-.34c.06-.11,.09-.23,.09-.31v-.74c-.23-.11-.45-.17-.74-.23-.26-.06-.51-.09-.77-.09-.48,0-.91,.11-1.22,.31-.31,.23-.48,.51-.48,.85,0,.17,.06,.37,.17,.54,.09,.14,.26,.28,.45,.4,.2,.09,.43,.14,.71,.14s.57-.06,.85-.14c.28-.11,.51-.26,.68-.4h0Zm4.05-8.65h1.93v8.08c0,.34,.06,.57,.17,.68,.11,.14,.26,.2,.45,.2,.17,0,.31-.03,.48-.06,.17-.06,.31-.09,.43-.14l.26,1.45c-.26,.14-.54,.23-.88,.28-.37,.09-.68,.11-.94,.11-.62,0-1.08-.17-1.42-.48-.31-.34-.48-.79-.48-1.39v-8.73Z"/><path class="f" d="M130.45,131.39c-.62,0-1.16-.11-1.64-.31s-.91-.48-1.25-.85c-.34-.34-.6-.77-.79-1.22-.17-.48-.26-.96-.26-1.47s.09-.99,.26-1.47c.2-.45,.45-.88,.79-1.22,.34-.37,.77-.65,1.25-.85s1.02-.31,1.64-.31,1.16,.11,1.64,.31,.88,.48,1.25,.85c.34,.34,.6,.77,.77,1.22,.17,.48,.26,.96,.26,1.47s-.09,.99-.26,1.47c-.17,.45-.43,.88-.77,1.22-.34,.37-.77,.65-1.25,.85s-1.05,.31-1.64,.31h0Zm-1.96-3.86c0,.43,.09,.82,.26,1.16,.17,.31,.4,.6,.68,.77,.31,.2,.65,.28,1.02,.28s.68-.09,.99-.28c.28-.2,.54-.45,.71-.79,.17-.34,.26-.71,.26-1.13s-.09-.79-.26-1.13c-.17-.34-.43-.62-.71-.79-.31-.2-.62-.28-.99-.28s-.71,.09-1.02,.28c-.28,.2-.51,.45-.68,.79-.17,.34-.26,.71-.26,1.13h0Zm7.57,3.71v-5.67h-.99v-1.45h.99v-.45c0-.62,.09-1.16,.31-1.62,.2-.45,.48-.82,.85-1.05,.4-.26,.82-.4,1.33-.4,.31,0,.62,.06,.94,.11,.31,.09,.62,.2,.91,.34l-.37,1.45c-.14-.06-.31-.14-.51-.2-.2-.03-.37-.06-.54-.06-.34,0-.57,.11-.74,.34-.2,.23-.28,.57-.28,.99v.54h1.84v1.45h-1.84v5.67h-1.9Zm7.97,0v-7.51h1.93v7.51h-1.93Zm0-8.56v-1.9h1.93v1.9h-1.93Zm10.66,8.56h-1.93v-4.17c0-.6-.11-1.02-.31-1.3-.23-.26-.51-.4-.88-.4-.26,0-.51,.06-.79,.2-.26,.11-.48,.31-.71,.54-.2,.23-.34,.48-.45,.79v4.34h-1.93v-7.46h1.76v1.39c.17-.31,.43-.6,.71-.82,.31-.2,.65-.37,1.05-.51,.37-.11,.79-.17,1.22-.17,.45,0,.85,.09,1.16,.26,.28,.17,.51,.4,.68,.65,.14,.28,.26,.6,.31,.96,.09,.34,.11,.71,.11,1.05v4.65Zm4.45,.14c-.65,0-1.28-.11-1.84-.31-.6-.23-1.08-.54-1.5-.94l.68-1.25c.45,.37,.88,.62,1.33,.79,.43,.17,.85,.26,1.25,.26,.37,0,.68-.06,.91-.2,.23-.11,.34-.31,.34-.57,0-.17-.09-.31-.2-.43-.11-.09-.31-.17-.54-.26-.23-.09-.51-.17-.85-.26-.57-.17-1.02-.37-1.39-.54-.37-.14-.65-.37-.85-.62-.17-.26-.28-.6-.28-.99,0-.51,.14-.94,.4-1.28,.26-.37,.6-.62,1.05-.82,.45-.2,.99-.31,1.62-.31,.51,0,1.02,.09,1.5,.26,.48,.17,.91,.43,1.3,.82l-.77,1.22c-.4-.31-.74-.54-1.11-.65-.34-.14-.68-.23-1.02-.23-.23,0-.4,.03-.57,.09-.2,.03-.34,.11-.45,.23-.09,.11-.14,.26-.14,.45,0,.17,.03,.31,.14,.43,.09,.09,.26,.17,.45,.26,.2,.09,.45,.17,.77,.26,.6,.17,1.11,.34,1.5,.51,.43,.2,.74,.4,.96,.68,.2,.26,.31,.6,.31,1.05,0,.74-.28,1.3-.82,1.73-.54,.4-1.28,.62-2.18,.62h0Zm4.22-2.92v-4.68h1.93v4.25c0,.57,.11,.99,.31,1.28,.23,.28,.54,.43,.94,.43,.26,0,.48-.06,.74-.14,.26-.11,.48-.26,.68-.45s.37-.43,.51-.74v-4.62h1.93v5.3c0,.2,.03,.34,.11,.43,.06,.09,.2,.14,.34,.17v1.56c-.17,.03-.34,.06-.48,.06-.11,.03-.23,.03-.34,.03-.34,0-.62-.09-.85-.23-.2-.17-.34-.4-.37-.65l-.06-.6c-.31,.48-.77,.88-1.28,1.13-.54,.26-1.11,.4-1.73,.4-.79,0-1.36-.26-1.76-.74-.43-.51-.62-1.25-.62-2.18h0Zm8.93-7.68h1.93v8.08c0,.34,.06,.57,.17,.68,.11,.14,.26,.2,.45,.2,.17,0,.31-.03,.48-.06,.17-.06,.31-.09,.43-.14l.26,1.45c-.26,.14-.54,.23-.88,.28-.37,.09-.68,.11-.94,.11-.62,0-1.08-.17-1.42-.48-.31-.34-.48-.79-.48-1.39v-8.73Zm4.56,10.46v-7.51h1.93v7.51h-1.93Zm0-8.56v-1.9h1.93v1.9h-1.93Zm10.63,8.56h-1.93v-4.17c0-.6-.09-1.02-.31-1.3-.2-.26-.51-.4-.88-.4-.26,0-.51,.06-.77,.2-.28,.11-.51,.31-.71,.54-.23,.23-.37,.48-.48,.79v4.34h-1.9v-7.46h1.73v1.39c.2-.31,.43-.6,.74-.82,.28-.2,.62-.37,1.02-.51,.4-.11,.79-.17,1.22-.17,.48,0,.85,.09,1.16,.26,.28,.17,.54,.4,.68,.65,.17,.28,.28,.6,.34,.96,.06,.34,.09,.71,.09,1.05v4.65Zm1.64,0v-2.07h1.56v2.07h-1.56Z"/><path class="c" d="M45.78,71.55v-10.2h4.48c.48,0,.91,.11,1.3,.28,.4,.2,.74,.45,1.05,.79,.28,.31,.51,.68,.65,1.08,.17,.4,.26,.82,.26,1.25s-.09,.85-.23,1.25c-.14,.4-.37,.74-.65,1.02-.26,.31-.6,.54-.96,.68l2.32,3.86h-2.18l-2.1-3.43h-1.98v3.43h-1.96Zm1.96-5.16h2.49c.26,0,.45-.09,.65-.23s.34-.34,.45-.6,.17-.51,.17-.82c0-.34-.06-.62-.2-.85-.11-.26-.28-.45-.51-.6-.2-.14-.43-.2-.65-.2h-2.41v3.29Zm7.57,5.16v-10.2h1.98v10.2h-1.98Zm8.33,.06c-.65,0-1.28-.14-1.87-.4-.6-.28-1.11-.65-1.56-1.11-.45-.48-.79-1.02-1.05-1.67-.23-.62-.37-1.3-.37-2.04s.14-1.36,.37-1.98c.26-.6,.62-1.16,1.05-1.62,.45-.48,.99-.85,1.59-1.11,.6-.26,1.25-.4,1.96-.4,.96,0,1.79,.2,2.47,.6,.68,.43,1.19,.96,1.53,1.62l-1.47,1.11c-.26-.51-.6-.91-1.08-1.16-.45-.28-.96-.4-1.5-.4-.43,0-.82,.09-1.19,.26-.34,.2-.65,.43-.91,.74-.26,.34-.45,.68-.6,1.11-.14,.4-.2,.85-.2,1.3,0,.48,.06,.94,.2,1.33,.17,.43,.37,.79,.65,1.08,.26,.31,.6,.57,.94,.74,.37,.17,.77,.26,1.22,.26,.51,0,1.02-.11,1.47-.4,.48-.26,.91-.65,1.33-1.16v1.93c-.85,.94-1.84,1.39-2.98,1.39h0Zm2.83-3.86h-2.04v-1.45h3.69v5.24h-1.64v-3.8Zm11.88-6.41v10.2h-1.96v-4.37h-4.62v4.37h-1.98v-10.2h1.98v4.14h4.62v-4.14h1.96Zm9.75,1.76h-3.26v8.45h-1.96v-8.45h-3.26v-1.76h8.48v1.76Zm4.28,8.45v-10.2h3.69c1.13,0,2.04,.23,2.81,.68,.74,.45,1.3,1.08,1.67,1.84,.37,.77,.54,1.62,.54,2.55,0,1.05-.2,1.96-.6,2.72-.43,.77-.99,1.33-1.76,1.76-.74,.43-1.62,.65-2.66,.65h-3.69Zm6.72-5.13c0-.65-.11-1.22-.34-1.73-.26-.51-.6-.91-1.05-1.16-.45-.28-.99-.43-1.64-.43h-1.7v6.69h1.7c.65,0,1.22-.14,1.67-.43,.43-.28,.79-.71,1.02-1.22,.23-.51,.34-1.08,.34-1.73h0Zm7.88,5.19c-.74,0-1.42-.14-2.01-.43-.62-.28-1.13-.68-1.56-1.16-.45-.51-.79-1.05-1.02-1.67-.23-.62-.37-1.25-.37-1.9s.14-1.33,.4-1.96c.26-.6,.6-1.16,1.05-1.64,.43-.48,.96-.85,1.56-1.13,.62-.28,1.28-.43,2.01-.43s1.42,.14,2.01,.45c.6,.28,1.13,.68,1.56,1.19,.43,.48,.77,1.05,.99,1.64,.26,.62,.37,1.25,.37,1.9s-.11,1.3-.37,1.93-.6,1.16-1.05,1.64c-.45,.48-.96,.88-1.59,1.13-.6,.28-1.25,.43-1.98,.43h0Zm-2.95-5.16c0,.43,.09,.85,.2,1.28,.14,.4,.34,.77,.6,1.11,.26,.31,.57,.57,.94,.74,.37,.2,.77,.28,1.25,.28s.91-.09,1.28-.28c.37-.2,.68-.45,.94-.79,.26-.31,.43-.68,.57-1.11,.11-.4,.2-.82,.2-1.22,0-.45-.09-.85-.23-1.28-.14-.4-.34-.77-.57-1.08-.26-.34-.57-.57-.94-.77-.37-.2-.79-.28-1.25-.28-.48,0-.91,.11-1.28,.28-.37,.2-.68,.48-.94,.79-.26,.31-.43,.68-.57,1.08-.14,.43-.2,.82-.2,1.25h0Zm15.48-2.44c-.06-.06-.2-.14-.37-.26-.17-.11-.4-.23-.65-.34-.26-.09-.51-.2-.82-.28-.28-.09-.6-.11-.91-.11-.54,0-.94,.11-1.19,.31-.28,.2-.43,.48-.43,.82,0,.28,.09,.51,.26,.65,.17,.17,.43,.31,.79,.43,.34,.11,.77,.23,1.28,.37,.68,.17,1.25,.37,1.76,.6,.48,.23,.85,.54,1.13,.91,.26,.4,.37,.88,.37,1.5,0,.54-.09,.99-.28,1.39s-.48,.71-.85,.94c-.34,.23-.74,.4-1.19,.51-.45,.11-.94,.17-1.45,.17-.48,0-.99-.06-1.5-.17-.51-.09-.99-.26-1.47-.43-.45-.2-.88-.45-1.28-.71l.88-1.73c.09,.09,.23,.2,.45,.34,.2,.14,.48,.28,.79,.43,.31,.14,.65,.26,1.02,.34,.4,.11,.77,.14,1.13,.14,.54,0,.96-.09,1.22-.26,.28-.2,.43-.45,.43-.77s-.11-.54-.34-.71c-.2-.17-.51-.34-.91-.45-.4-.14-.85-.28-1.39-.43-.65-.17-1.16-.4-1.62-.6-.43-.23-.74-.51-.96-.85-.2-.37-.31-.79-.31-1.3,0-.68,.17-1.28,.51-1.73,.31-.48,.77-.85,1.33-1.08,.57-.26,1.19-.37,1.87-.37,.48,0,.94,.06,1.36,.14,.43,.11,.82,.26,1.19,.43,.4,.17,.71,.37,1.02,.57l-.88,1.59Zm9.78,5.78v1.76h-7.06v-10.2h6.94v1.76h-4.96v2.44h4.28v1.62h-4.28v2.64h5.07Zm12.19-6.69h-3.23v8.45h-1.98v-8.45h-3.26v-1.76h8.48v1.76Zm1.28,8.45v-10.2h1.98v10.2h-1.98Zm11.71-8.45h-3.26v8.45h-1.96v-8.45h-3.26v-1.76h8.48v1.76Zm1.28,8.45v-10.2h4.48c.48,0,.91,.11,1.3,.28,.4,.2,.74,.45,1.05,.79,.28,.31,.51,.68,.65,1.08,.17,.4,.26,.82,.26,1.25s-.09,.85-.23,1.25c-.14,.4-.37,.74-.65,1.02-.26,.31-.6,.54-.96,.68l2.32,3.86h-2.18l-2.1-3.43h-1.98v3.43h-1.96Zm1.96-5.16h2.49c.26,0,.45-.09,.65-.23s.34-.34,.45-.6,.17-.51,.17-.82c0-.34-.06-.62-.2-.85-.11-.26-.28-.45-.51-.6-.2-.14-.43-.2-.65-.2h-2.41v3.29Zm10.35-5.05h1.98l3.74,10.2h-2.01l-.85-2.55h-3.74l-.85,2.55h-2.04l3.77-10.2Zm2.38,6.26l-1.39-4.2-1.42,4.2h2.81Zm11.14-4.51h-3.26v8.45h-1.96v-8.45h-3.26v-1.76h8.48v1.76Zm1.28,8.45v-10.2h1.96v10.2h-1.96Zm8.45,.06c-.77,0-1.45-.14-2.04-.43s-1.13-.68-1.56-1.16c-.43-.51-.77-1.05-1.02-1.67-.23-.62-.34-1.25-.34-1.9s.11-1.33,.37-1.96c.26-.6,.6-1.16,1.05-1.64,.45-.48,.96-.85,1.59-1.13,.6-.28,1.25-.43,1.98-.43s1.42,.14,2.01,.45c.62,.28,1.13,.68,1.56,1.19,.43,.48,.77,1.05,.99,1.64,.26,.62,.37,1.25,.37,1.9s-.11,1.3-.37,1.93c-.26,.62-.6,1.16-1.05,1.64-.43,.48-.96,.88-1.56,1.13-.62,.28-1.28,.43-1.98,.43h0Zm-2.98-5.16c0,.43,.09,.85,.2,1.28,.14,.4,.34,.77,.6,1.11,.26,.31,.57,.57,.94,.74,.37,.2,.79,.28,1.25,.28,.48,0,.91-.09,1.28-.28s.68-.45,.94-.79c.26-.31,.43-.68,.57-1.11,.14-.4,.2-.82,.2-1.22,0-.45-.09-.85-.23-1.28-.11-.4-.31-.77-.57-1.08-.26-.34-.57-.57-.94-.77s-.79-.28-1.25-.28c-.48,0-.91,.11-1.28,.28-.37,.2-.68,.48-.94,.79-.26,.31-.43,.68-.57,1.08-.11,.43-.2,.82-.2,1.25h0Zm11.45-1.45v6.55h-1.98v-10.2h1.56l5.27,6.72v-6.69h1.98v10.18h-1.64l-5.19-6.55Z"/><rect class="b" y="233.87" width="251.77" height="13.66"/><rect class="c" x="33.31" y="227.83" width="185.16" height="12.1"/><rect class="d" x="78.26" y="160.79" width="4.03" height="15.51"/><polygon class="d" points="100.63 176.29 96.6 176.29 89.4 166.68 89.4 176.29 85.38 176.29 85.38 160.79 89.43 160.79 96.6 170.43 96.6 160.79 100.63 160.79 100.63 176.29"/><rect class="d" x="103.69" y="160.79" width="4.03" height="15.51"/><polygon class="d" points="119.57 164.36 116.42 164.36 116.42 176.29 112.39 176.29 112.39 164.36 109.22 164.36 109.22 160.79 119.57 160.79 119.57 164.36"/><rect class="d" x="121.04" y="160.79" width="4.05" height="15.51"/><path class="d" d="M136.52,170.57l-2.04-6.58-2.1,6.58h4.14Zm6.07,5.73h-4.34l-.82-2.75h-5.92l-.88,2.75h-4.31l5.5-15.51h5.24l5.53,15.51Z"/><polygon class="d" points="152.16 164.36 149.02 164.36 149.02 176.29 144.96 176.29 144.96 164.36 141.82 164.36 141.82 160.79 152.16 160.79 152.16 164.36"/><polygon class="d" points="162.77 176.29 153.89 176.29 153.89 160.79 162.77 160.79 162.77 164.22 157.95 164.22 157.95 166.8 162.57 166.8 162.57 170.09 157.95 170.09 157.95 172.89 162.77 172.89 162.77 176.29"/><polygon class="d" points="181.5 164.36 178.36 164.36 178.36 176.29 174.33 176.29 174.33 164.36 171.16 164.36 171.16 160.79 181.5 160.79 181.5 164.36"/><path class="d" d="M194.49,168.58c0-1.22-.4-2.21-1.19-3s-1.81-1.22-3-1.22-2.27,.4-3.06,1.19c-.77,.79-1.16,1.81-1.16,3.03s.4,2.18,1.19,2.95c.79,.79,1.79,1.19,3.03,1.19s2.21-.4,3-1.19,1.19-1.79,1.19-2.95h0Zm4.2,0c0,2.27-.82,4.2-2.41,5.73-1.62,1.56-3.6,2.32-5.98,2.32s-4.39-.77-6.01-2.32c-1.59-1.53-2.41-3.46-2.41-5.73s.82-4.22,2.44-5.78c1.62-1.56,3.6-2.32,5.98-2.32s4.37,.77,5.98,2.32c1.59,1.56,2.41,3.49,2.41,5.78h0Z"/><path class="c" d="M46.26,186.58s-.48-.43-.65-.54c-.31-.26-.88-.23-1.13,.11l-.03,.06c-.26,.34-.17,.79,.14,1.02,.2,.14,.57,.48,.79,.6,.26,.11,.74,.17,.96-.14l.06-.09c.26-.31,.17-.77-.14-1.02h0Z"/><path class="c" d="M45.47,188.17l-.74-.51c-.28-.23-.68-.2-.91,.11l-.11,.14c-.23,.31-.14,.74,.14,.96,.17,.14,.74,.51,.74,.51,.31,.23,.74,.14,.96-.17l.06-.06c.2-.28,.14-.79-.14-.99h0Z"/><path class="c" d="M44.11,189.31c-.28-.23-.68-.17-.91,.14l-.03,.06c-.17,.26-.06,.71,.2,.96,.09,.09,.28,.2,.4,.26,.2,.06,.45,.14,.82-.03l.09-.06c.31-.28,.2-.68-.09-.94-.11-.11-.48-.4-.48-.4h0Z"/><path class="c" d="M46.2,184.32c-.26-.09-.57-.09-.74,.09-.23,.26-.2,.48-.2,.65,.03,.51,.45,.71,.45,.71,.71-.43,1.08-.99,1.08-.99-.17-.23-.4-.43-.6-.45h0Z"/><path class="c" d="M72.11,199.06c-2.07,2.07-4.88,3.32-7.94,3.32-4.39,0-8.22-2.52-10.15-6.26l-2.47,1.13,1.16-.79-.51-1.02-.09-1.25s.14-.96,1.08-2.3c0,0,.09-.14,.09-.2,0,0-.11-2.13-.17-3.12,0,0,.03-.14-.11-.23,0,0-2.15-.99-2.64-1.39,0,0-.06-.06-.2,0-.14,.06-.57,.54-.26,1.33,0,0,.48,1.05,1.79,1.45,0,0-.17,.11-.45,.09,0,0-.17,1.81-.31,2.18,0,0-1.05,2.32-1.87,3.29,0,0-.06,.37,0,.65,0,0-.26-.11-.26-.54,0,0-.57,.23-1.93,1.05,0,0,.79,.68,1.13,1.11l.48,1.08-1.25,.57c3.12,6.41,9.52,10.8,16.92,10.8,2.83,0,5.53-.65,7.94-1.81v-9.13Z"/><path class="d" d="M72.11,172.78c-2.41-1.16-5.1-1.81-7.94-1.81-7.57,0-14.12,4.62-17.12,11.25l2.55,1.19-1.42-.34-.03,.09h-.03v.03c-.09,.26-.74,1.79-2.07,2.78,0,0,.71,.54,.82,.94,0,0,.11,.31,0,.65,0,0-.34,.77-.99,.71,0,0,.28,.51,.11,.96-.09,.26-.31,.6-.88,.6,0,0,.31,.62-.11,1.05-.26,.23-.65,.28-.94,.26-.11,0-.31-.06-.43-.14,0,0-.31,.23-.2,.62,0,0,.11,.26,.34,.31,0,0,.14,.03,.34-.11l1.47-1.02,.11-.06s.09-.06,.14,.03c0,.06,0,.14-.06,.17,0,0-1.5,1.13-1.73,1.3-.26,.2-.31,.37-.28,.6,.03,.26,.2,.54,.26,.62,.09,.06,.26,.14,.54,.06,.28-.09,2.01-1.39,2.01-1.39,0,0,.09-.09,.17-.06,.06,0,.14,.11,.06,.23-.09,.09-.17,.14-.28,.23-.11,.09-1.87,1.36-1.87,1.36,0,0-.26,.14-.11,.65,.09,.37,.26,.48,.34,.54,.11,.09,.31,.11,.48,0,.23-.11,2.32-1.73,2.32-1.73,0,0,.06,0,.11,.03,.06,.03,.06,.14-.03,.26-.11,.11-.26,.2-.26,.2l-1.93,1.47s-.26,.26-.06,.57c0,0,.23,.34,.48,.48,.26,.11,.48-.06,.6-.11,.14-.06,2.15-1.28,2.15-1.28,0,0,.31-.14,.43-.43,.11-.28,1.11-1.81,1.39-2.64,0,0,.23-.85,.28-1.81,0,0,.03-.2-.11-.28,0,0-.65-.51-1.02-1.08-.2-.31-.43-1.11-.17-1.62,.26-.43,.51-.57,.51-.57,0,0,.14-.09,.26,0,.11,.09,1.64,1.02,2.15,1.16,0,0-.28-1.02-.37-1.84l.54-1.05,1.13,.51c1.87-3.97,5.81-6.72,10.37-6.72,3.06,0,5.87,1.28,7.94,3.32v-9.13Z"/><path class="c" d="M91.53,190.58c0-1.84-.62-3.37-1.84-4.62-1.22-1.22-2.75-1.84-4.62-1.84s-3.46,.62-4.68,1.84c-1.19,1.22-1.81,2.75-1.81,4.62s.62,3.34,1.84,4.56c1.22,1.22,2.78,1.81,4.65,1.81s3.43-.6,4.62-1.81c1.22-1.22,1.84-2.75,1.84-4.56h0Zm6.43,0c0,3.51-1.22,6.43-3.71,8.82-2.47,2.38-5.53,3.57-9.18,3.57s-6.75-1.19-9.21-3.57-3.71-5.3-3.71-8.82,1.25-6.46,3.74-8.87c2.47-2.38,5.53-3.6,9.18-3.6s6.72,1.19,9.18,3.6c2.49,2.41,3.71,5.36,3.71,8.87h0Z"/><polygon class="c" points="124.92 202.46 118.74 202.46 107.69 187.66 107.69 202.46 101.48 202.46 101.48 178.62 107.72 178.62 118.74 193.44 118.74 178.62 124.92 178.62 124.92 202.46"/><polygon class="c" points="143.52 184.09 138.67 184.09 138.67 202.46 132.46 202.46 132.46 184.09 127.62 184.09 127.62 178.62 143.52 178.62 143.52 184.09"/><path class="c" d="M157.55,186.95c0-1.16-.31-2.01-.91-2.52-.6-.51-1.59-.77-3-.77h-1.22v6.35h1.11c1.39,0,2.38-.26,3.03-.77,.65-.48,.99-1.25,.99-2.3h0Zm7.63,15.51h-7.29l-5.47-9.27v9.27h-6.21v-23.84h7.26c3.88,0,6.6,.6,8.16,1.81,1.56,1.22,2.35,3.12,2.35,5.73,0,1.84-.45,3.34-1.36,4.51-.91,1.16-2.24,1.93-3.97,2.3l6.52,9.5Z"/><path class="c" d="M185.75,190.58c0-1.84-.62-3.37-1.84-4.62-1.22-1.22-2.75-1.84-4.62-1.84s-3.46,.62-4.68,1.84c-1.19,1.22-1.81,2.75-1.81,4.62s.62,3.34,1.84,4.56c1.22,1.22,2.78,1.81,4.65,1.81s3.43-.6,4.65-1.81c1.19-1.22,1.81-2.75,1.81-4.56h0Zm6.46,0c0,3.51-1.25,6.43-3.74,8.82-2.47,2.38-5.53,3.57-9.18,3.57s-6.75-1.19-9.21-3.57-3.71-5.3-3.71-8.82,1.25-6.46,3.74-8.87c2.47-2.38,5.56-3.6,9.18-3.6s6.72,1.19,9.18,3.6c2.49,2.41,3.74,5.36,3.74,8.87h0Z"/><polygon class="c" points="208.63 202.46 195.7 202.46 195.7 178.62 202.17 178.62 202.17 196.99 208.63 196.99 208.63 202.46"/><path class="e" d="M76.88,206.68h.11c.09,0,.17-.03,.28-.03,.09,0,.17-.03,.23-.09,.09-.03,.14-.09,.2-.14,.03-.09,.06-.17,.06-.28s-.03-.2-.09-.28c-.03-.06-.09-.11-.17-.14-.09-.06-.17-.06-.26-.09h-.37v1.05Zm1.45,1.53h-.45l-.85-1.25h-.14v1.25h-.37v-2.92h.43c.14,0,.28,0,.4,.03,.14,0,.26,.06,.4,.11,.11,.06,.2,.17,.28,.28,.06,.14,.09,.26,.09,.4,0,.11-.03,.23-.06,.31-.03,.09-.09,.17-.14,.26-.06,.06-.11,.11-.2,.17-.11,.06-.2,.09-.31,.09l.94,1.28Z"/><path class="e" d="M79.8,207.11c-.03-.14-.09-.26-.17-.34-.09-.09-.2-.11-.31-.11-.14,0-.26,.03-.37,.11-.09,.09-.14,.2-.17,.34h1.02Zm-1.02,.26c0,.09,0,.14,.03,.23,.03,.06,.06,.14,.11,.17,.06,.06,.11,.11,.17,.14,.06,.03,.14,.06,.23,.06,.14,0,.23-.03,.31-.09,.09-.09,.17-.17,.23-.26l.28,.14c-.09,.17-.2,.28-.34,.37s-.31,.14-.48,.14c-.14,0-.26-.03-.37-.09-.11-.03-.2-.11-.28-.2s-.14-.17-.17-.28c-.06-.14-.06-.26-.06-.4s0-.26,.06-.37c.03-.11,.09-.23,.14-.31,.09-.09,.17-.17,.28-.2,.11-.06,.23-.09,.4-.09,.14,0,.26,.03,.37,.09,.09,.06,.2,.11,.26,.2,.06,.09,.11,.2,.14,.31,.06,.11,.06,.23,.06,.37v.06h-1.36Z"/><path class="e" d="M81.21,207.96c.11,0,.2-.03,.26-.06,.09-.03,.14-.09,.2-.14,.03-.06,.09-.11,.11-.2,0-.09,.03-.17,.03-.26s-.03-.17-.03-.26c-.03-.09-.09-.14-.11-.2-.06-.06-.11-.11-.2-.14-.09-.03-.14-.06-.26-.06-.09,0-.17,.03-.23,.06-.09,.03-.14,.09-.2,.14-.03,.06-.09,.14-.09,.2-.03,.09-.06,.17-.06,.26s.03,.17,.06,.23c0,.09,.06,.17,.09,.23,.06,.06,.11,.11,.2,.14,.06,.03,.14,.06,.23,.06h0Zm.91,.26h-.34v-.28h0c-.06,.09-.17,.17-.26,.23-.11,.09-.23,.11-.37,.11s-.26-.03-.37-.09c-.09-.06-.2-.11-.26-.23-.09-.09-.14-.17-.17-.31-.03-.11-.06-.23-.06-.37,0-.11,.03-.23,.06-.34,.03-.11,.09-.23,.17-.31,.09-.09,.17-.14,.26-.2,.11-.06,.23-.09,.37-.09s.26,.03,.37,.11c.09,.06,.17,.14,.26,.26h0v-.31h.34v1.81Z"/><rect class="e" x="82.6" y="204.87" width=".34" height="3.34"/><path class="e" d="M83.88,208.21h-.37v-1.81h.37v1.81Zm-.2-2.89c.09,0,.14,.03,.17,.09,.06,.06,.09,.11,.09,.17s-.03,.11-.09,.17c-.03,.03-.09,.06-.17,.06-.06,0-.11-.03-.17-.06-.03-.06-.06-.11-.06-.17s.03-.11,.06-.17c.06-.06,.11-.09,.17-.09h0Z"/><polygon class="e" points="86.03 207.87 86.03 208.21 84.19 208.21 85.41 206.71 84.39 206.71 84.39 206.4 86.09 206.4 84.87 207.87 86.03 207.87"/><path class="e" d="M87.56,207.11c-.03-.14-.09-.26-.17-.34-.09-.09-.2-.11-.34-.11-.11,0-.23,.03-.34,.11-.09,.09-.14,.2-.17,.34h1.02Zm-1.02,.26c0,.09,0,.14,.03,.23,.03,.06,.06,.14,.11,.17,.06,.06,.11,.11,.17,.14,.06,.03,.14,.06,.23,.06,.14,0,.23-.03,.31-.09,.09-.09,.17-.17,.23-.26l.28,.14c-.09,.17-.2,.28-.34,.37s-.31,.14-.48,.14c-.14,0-.28-.03-.37-.09-.11-.03-.2-.11-.28-.2s-.14-.17-.17-.28c-.06-.14-.09-.26-.09-.4s.03-.26,.06-.37c.06-.11,.11-.23,.17-.31,.09-.09,.17-.17,.28-.2,.11-.06,.23-.09,.37-.09,.17,0,.28,.03,.4,.09,.09,.06,.17,.11,.26,.2,.06,.09,.11,.2,.14,.31,.06,.11,.06,.23,.06,.37v.06h-1.36Z"/><polygon class="e" points="89.72 208.21 89.38 208.21 89.38 206.71 89.18 206.71 89.18 206.4 89.38 206.4 89.38 205.72 89.72 205.72 89.72 206.4 90.06 206.4 90.06 206.71 89.72 206.71 89.72 208.21"/><path class="e" d="M90.6,204.87v1.79h0c.06-.11,.14-.17,.23-.23,.11-.06,.2-.09,.31-.09,.14,0,.23,.03,.31,.06,.09,.06,.17,.11,.2,.17,.06,.09,.09,.14,.11,.26,.03,.09,.03,.2,.03,.31v1.08h-.34v-1.05c0-.09,0-.14-.03-.2,0-.06-.03-.11-.06-.17s-.06-.09-.11-.11c-.06-.03-.11-.03-.2-.03-.11,0-.2,.03-.28,.06-.06,.06-.09,.11-.11,.17-.03,.09-.06,.17-.06,.26v1.08h-.34v-3.34h.34Z"/><path class="e" d="M93.49,207.11c0-.14-.06-.26-.14-.34-.09-.09-.2-.11-.34-.11s-.26,.03-.34,.11c-.11,.09-.17,.2-.17,.34h.99Zm-1.02,.26c0,.09,.03,.14,.03,.23,.03,.06,.09,.14,.11,.17,.06,.06,.11,.11,.17,.14,.09,.03,.14,.06,.23,.06,.14,0,.26-.03,.34-.09,.06-.09,.14-.17,.2-.26l.31,.14c-.09,.17-.2,.28-.37,.37-.14,.09-.31,.14-.48,.14-.14,0-.26-.03-.37-.09-.11-.03-.2-.11-.28-.2-.06-.09-.14-.17-.17-.28-.03-.14-.06-.26-.06-.4s.03-.26,.06-.37c.03-.11,.09-.23,.17-.31,.06-.09,.14-.17,.26-.2,.11-.06,.26-.09,.4-.09s.26,.03,.37,.09c.11,.06,.2,.11,.26,.2,.09,.09,.14,.2,.17,.31,.03,.11,.06,.23,.06,.37v.06h-1.39Z"/><path class="e" d="M96.15,205.21s-.09-.03-.11-.06c-.06,0-.09-.03-.11-.03-.06,0-.11,.03-.14,.06-.03,.03-.06,.09-.09,.14,0,.06-.03,.09-.03,.14v.94h.48v.31h-.48v1.5h-.34v-1.5h-.17v-.31h.17v-.88c0-.09,0-.2,.03-.28,.03-.09,.06-.14,.09-.23,.06-.06,.11-.11,.17-.14,.09-.03,.17-.06,.28-.06,.09,0,.17,.03,.26,.06v.34Z"/><path class="e" d="M96.63,206.4v.99c0,.09,.03,.14,.03,.23,0,.06,.03,.11,.06,.17,.03,.03,.09,.09,.14,.11s.11,.03,.2,.03,.17,0,.2-.03c.06-.03,.11-.09,.14-.11,.03-.06,.06-.11,.06-.17,.03-.09,.03-.14,.03-.23v-.99h.34v1.05c0,.11,0,.23-.06,.31-.03,.11-.06,.2-.11,.28-.09,.06-.14,.11-.26,.17-.09,.03-.2,.06-.34,.06s-.26-.03-.34-.06c-.09-.06-.17-.11-.23-.17-.09-.09-.11-.17-.14-.28-.03-.09-.06-.2-.06-.31v-1.05h.34Z"/><rect class="e" x="98.31" y="204.87" width=".34" height="3.34"/><rect class="e" x="99.16" y="204.87" width=".34" height="3.34"/><path class="e" d="M101.99,207.96c.09,0,.17-.03,.26-.06,.06-.03,.11-.09,.17-.14,.06-.06,.09-.11,.11-.2,.03-.09,.03-.17,.03-.26s0-.17-.03-.26c-.03-.09-.06-.14-.11-.2-.06-.06-.11-.11-.2-.14-.06-.03-.14-.06-.23-.06s-.17,.03-.26,.06c-.06,.03-.11,.09-.17,.14-.06,.06-.09,.14-.11,.2-.03,.09-.03,.17-.03,.26s0,.17,.03,.23c.03,.09,.06,.17,.11,.23,.06,.06,.11,.11,.17,.14,.09,.03,.14,.06,.26,.06h0Zm-.57-1.25h.03c.06-.11,.14-.2,.26-.26,.11-.09,.23-.11,.37-.11,.11,0,.23,.03,.34,.09,.11,.06,.2,.11,.28,.2,.06,.09,.11,.2,.17,.31,.03,.11,.06,.23,.06,.34,0,.14-.03,.26-.06,.37-.06,.14-.11,.23-.17,.31-.09,.11-.17,.17-.28,.23-.11,.06-.23,.09-.37,.09-.11,0-.23-.03-.34-.11-.11-.06-.2-.14-.26-.23h-.03v1.3h-.34v-2.83h.34v.31Z"/><path class="e" d="M104.06,206.68c-.09,0-.17,0-.26,.06-.06,.03-.14,.06-.2,.11-.06,.06-.09,.14-.11,.2-.03,.09-.06,.17-.06,.26s.03,.17,.06,.23c.03,.09,.06,.14,.11,.23,.06,.06,.14,.09,.2,.11,.09,.06,.17,.06,.26,.06s.17,0,.23-.06c.09-.03,.14-.06,.2-.11,.06-.09,.11-.14,.14-.23,.03-.06,.06-.14,.06-.23s-.03-.17-.06-.26c-.03-.06-.09-.14-.14-.2-.06-.06-.11-.09-.2-.11-.06-.06-.14-.06-.23-.06h0Zm0-.34c.14,0,.26,.03,.37,.09,.11,.03,.23,.11,.31,.2s.14,.17,.2,.31c.06,.11,.09,.23,.09,.37s-.03,.26-.09,.37c-.06,.11-.11,.23-.2,.31s-.2,.17-.31,.2c-.11,.06-.23,.09-.37,.09s-.26-.03-.4-.09c-.11-.03-.2-.11-.28-.2-.09-.09-.17-.2-.2-.31-.06-.11-.09-.23-.09-.37s.03-.26,.09-.37c.03-.14,.11-.23,.2-.31,.09-.09,.17-.17,.28-.2,.14-.06,.26-.09,.4-.09h0Z"/><polygon class="e" points="105.73 208.21 105.39 208.21 105.39 206.71 105.19 206.71 105.19 206.4 105.39 206.4 105.39 205.72 105.73 205.72 105.73 206.4 106.07 206.4 106.07 206.71 105.73 206.71 105.73 208.21"/><path class="e" d="M107.49,207.11c0-.14-.06-.26-.14-.34-.09-.09-.2-.11-.34-.11s-.26,.03-.34,.11c-.11,.09-.17,.2-.17,.34h.99Zm-1.02,.26c0,.09,0,.14,.03,.23,.03,.06,.09,.14,.11,.17,.06,.06,.11,.11,.17,.14,.09,.03,.14,.06,.23,.06,.14,0,.26-.03,.31-.09,.09-.09,.17-.17,.23-.26l.31,.14c-.09,.17-.23,.28-.37,.37-.14,.09-.31,.14-.48,.14-.14,0-.26-.03-.37-.09-.11-.03-.2-.11-.28-.2-.09-.09-.14-.17-.17-.28-.06-.14-.06-.26-.06-.4s0-.26,.06-.37c.03-.11,.09-.23,.17-.31,.06-.09,.14-.17,.26-.2,.11-.06,.26-.09,.4-.09s.26,.03,.37,.09c.11,.06,.2,.11,.26,.2,.09,.09,.11,.2,.17,.31,.03,.11,.06,.23,.06,.37v.06h-1.39Z"/><path class="e" d="M108.48,206.65h0c.06-.11,.14-.17,.26-.23,.09-.06,.2-.09,.31-.09s.23,.03,.31,.06c.09,.06,.14,.11,.2,.17,.03,.09,.09,.14,.09,.26,.03,.09,.03,.2,.03,.31v1.08h-.34v-1.25c-.03-.06-.03-.11-.06-.17s-.09-.09-.14-.11c-.03-.03-.11-.03-.2-.03-.11,0-.2,.03-.26,.06-.06,.06-.11,.11-.14,.17-.03,.09-.03,.17-.06,.26v1.08h-.34v-1.81h.34v.26Z"/><polygon class="e" points="110.55 208.21 110.21 208.21 110.21 206.71 110.01 206.71 110.01 206.4 110.21 206.4 110.21 205.72 110.55 205.72 110.55 206.4 110.89 206.4 110.89 206.71 110.55 206.71 110.55 208.21"/><path class="e" d="M111.51,208.21h-.37v-1.81h.37v1.81Zm-.17-2.89c.06,0,.11,.03,.17,.09,.03,.06,.06,.11,.06,.17s-.03,.11-.06,.17c-.06,.03-.11,.06-.17,.06-.09,0-.14-.03-.17-.06-.06-.06-.09-.11-.09-.17s.03-.11,.09-.17c.03-.06,.09-.09,.17-.09h0Z"/><path class="e" d="M112.85,207.96c.09,0,.17-.03,.26-.06,.06-.03,.11-.09,.17-.14,.06-.06,.09-.11,.11-.2,.03-.09,.03-.17,.03-.26s0-.17-.03-.26c-.03-.09-.06-.14-.11-.2-.06-.06-.11-.11-.2-.14-.06-.03-.14-.06-.23-.06s-.17,.03-.26,.06c-.06,.03-.11,.09-.17,.14-.06,.06-.09,.14-.11,.2-.03,.09-.03,.17-.03,.26s0,.17,.03,.23c.03,.09,.06,.17,.11,.23,.03,.06,.11,.11,.17,.14,.09,.03,.14,.06,.26,.06h0Zm.91,.26h-.34v-.28h-.03c-.06,.09-.14,.17-.26,.23-.09,.09-.23,.11-.34,.11-.14,0-.26-.03-.37-.09-.11-.06-.2-.11-.28-.23-.06-.09-.11-.17-.17-.31-.03-.11-.06-.23-.06-.37,0-.11,.03-.23,.06-.34,.06-.11,.11-.23,.17-.31,.09-.09,.17-.14,.28-.2,.11-.06,.23-.09,.34-.09,.14,0,.26,.03,.37,.11,.11,.06,.2,.14,.26,.26h.03v-.31h.34v1.81Z"/><rect class="e" x="114.21" y="204.87" width=".37" height="3.34"/><path class="e" d="M116.99,206.68c-.09,0-.17,0-.26,.06-.09,.03-.14,.06-.2,.11-.06,.06-.09,.14-.11,.2-.06,.09-.06,.17-.06,.26s0,.17,.06,.23c.03,.09,.06,.14,.11,.23,.06,.06,.11,.09,.2,.11,.09,.06,.17,.06,.26,.06s.14,0,.23-.06c.09-.03,.14-.06,.2-.11,.06-.09,.09-.14,.14-.23,.03-.06,.03-.14,.03-.23s0-.17-.03-.26c-.06-.06-.09-.14-.14-.2-.06-.06-.11-.09-.2-.11-.09-.06-.14-.06-.23-.06h0Zm0-.34c.11,0,.26,.03,.37,.09,.11,.03,.23,.11,.31,.2,.09,.09,.14,.17,.2,.31,.06,.11,.09,.23,.09,.37s-.03,.26-.09,.37c-.06,.11-.11,.23-.2,.31-.09,.09-.2,.17-.31,.2-.11,.06-.26,.09-.37,.09-.14,0-.28-.03-.4-.09-.11-.03-.23-.11-.31-.2s-.14-.2-.2-.31c-.06-.11-.06-.23-.06-.37s0-.26,.06-.37c.06-.14,.11-.23,.2-.31s.2-.17,.31-.2c.11-.06,.26-.09,.4-.09h0Z"/><path class="e" d="M119.14,205.21s-.06-.03-.11-.06c-.03,0-.09-.03-.11-.03-.06,0-.11,.03-.14,.06-.03,.03-.06,.09-.09,.14v.14c-.03,.06-.03,.11-.03,.17v.77h.48v.31h-.48v1.5h-.34v-1.5h-.14v-.31h.14v-.88c0-.09,0-.2,.03-.28s.06-.14,.09-.23c.06-.06,.11-.11,.2-.14,.06-.03,.17-.06,.28-.06,.09,0,.17,.03,.23,.06v.34Z"/><path class="e" d="M120.84,208.21h-.34v-1.81h.34v1.81Zm-.17-2.89c.09,0,.14,.03,.17,.09,.06,.06,.09,.11,.09,.17s-.03,.11-.09,.17c-.03,.03-.09,.06-.17,.06-.06,0-.11-.03-.17-.06-.03-.06-.06-.11-.06-.17s.03-.11,.06-.17c.06-.06,.11-.09,.17-.09h0Z"/><path class="e" d="M121.75,206.65h0c.06-.11,.14-.17,.23-.23,.11-.06,.23-.09,.34-.09s.23,.03,.31,.06c.09,.06,.14,.11,.2,.17,.03,.09,.06,.14,.09,.26,.03,.09,.03,.2,.03,.31v1.08h-.34v-1.05c0-.09,0-.14-.03-.2,0-.06,0-.11-.03-.17s-.09-.09-.14-.11c-.06-.03-.11-.03-.2-.03-.11,0-.2,.03-.26,.06-.06,.06-.11,.11-.14,.17-.03,.09-.03,.17-.06,.26v1.08h-.34v-1.81h.34v.26Z"/><path class="e" d="M124.16,206.82c-.03-.06-.06-.09-.11-.11-.03-.03-.09-.06-.14-.06-.03,0-.09,.03-.11,.06-.06,.03-.06,.06-.06,.11s0,.09,.03,.11l.09,.09c.06,.03,.09,.06,.14,.06l.17,.09s.09,.03,.14,.06c.06,.06,.09,.09,.14,.11,.03,.06,.06,.09,.09,.14,.03,.06,.03,.11,.03,.2s0,.17-.06,.23c-.03,.09-.06,.14-.11,.2-.06,.06-.14,.09-.2,.11-.09,.03-.17,.06-.26,.06-.06,0-.11,0-.2-.03l-.17-.09c-.06-.03-.11-.09-.14-.11-.06-.06-.09-.11-.11-.17l.31-.14c.03,.06,.09,.11,.11,.17,.06,.03,.11,.06,.2,.06s.14-.03,.2-.09c.06-.03,.09-.09,.09-.17,0-.06,0-.09-.03-.11l-.09-.09-.34-.17c-.06-.03-.11-.06-.14-.09-.06-.03-.09-.06-.11-.11-.03-.03-.06-.06-.09-.11,0-.03-.03-.09-.03-.14,0-.09,.03-.14,.06-.23,.03-.06,.06-.11,.11-.17,.03-.03,.09-.06,.17-.09,.06-.03,.11-.06,.2-.06,.11,0,.2,.03,.28,.09,.09,.06,.17,.14,.2,.23l-.26,.17Z"/><path class="e" d="M125.23,206.4v.99c0,.09,0,.14,.03,.23,0,.06,.03,.11,.06,.17,.03,.03,.06,.09,.11,.11s.14,.03,.23,.03,.14,0,.2-.03,.09-.09,.11-.11l.09-.17v-1.22h.34v1.05c0,.11,0,.23-.03,.31-.03,.11-.09,.2-.14,.28-.06,.06-.14,.11-.23,.17-.11,.03-.23,.06-.34,.06-.14,0-.26-.03-.37-.06-.09-.06-.17-.11-.23-.17-.06-.09-.11-.17-.14-.28-.03-.09-.03-.2-.03-.31v-1.05h.34Z"/><rect class="e" x="126.88" y="204.87" width=".37" height="3.34"/><path class="e" d="M128.15,208.21h-.34v-1.81h.34v1.81Zm-.17-2.89c.06,0,.11,.03,.17,.09,.03,.06,.06,.11,.06,.17s-.03,.11-.06,.17c-.06,.03-.11,.06-.17,.06-.09,0-.14-.03-.17-.06-.06-.06-.09-.11-.09-.17s.03-.11,.09-.17c.03-.06,.09-.09,.17-.09h0Z"/><path class="e" d="M129.06,206.65h0c.06-.11,.14-.17,.23-.23,.11-.06,.2-.09,.31-.09,.14,0,.23,.03,.31,.06,.09,.06,.17,.11,.2,.17,.06,.09,.09,.14,.11,.26,0,.09,.03,.2,.03,.31v1.08h-.34v-1.05c0-.09-.03-.14-.03-.2s-.03-.11-.06-.17c-.03-.06-.06-.09-.11-.11-.06-.03-.11-.03-.2-.03-.11,0-.23,.03-.28,.06-.06,.06-.09,.11-.11,.17-.03,.09-.06,.17-.06,.26v1.08h-.34v-1.81h.34v.26Z"/><polygon class="e" points="131.41 207.87 130.9 208.89 130.71 208.81 131.1 207.73 131.41 207.87"/><path class="e" d="M133.37,208.21h-.34v-1.81h.34v1.81Zm-.17-2.89c.06,0,.11,.03,.17,.09s.06,.11,.06,.17,0,.11-.06,.17c-.06,.03-.11,.06-.17,.06s-.11-.03-.17-.06c-.06-.06-.06-.11-.06-.17s0-.11,.06-.17,.11-.09,.17-.09h0Z"/><path class="e" d="M134.28,206.65h0c.06-.11,.14-.17,.23-.23,.11-.06,.2-.09,.31-.09,.14,0,.26,.03,.31,.06,.09,.06,.17,.11,.2,.17,.06,.09,.09,.14,.11,.26,.03,.09,.03,.2,.03,.31v1.08h-.34v-1.05c0-.09,0-.14-.03-.2,0-.06-.03-.11-.06-.17-.03-.06-.06-.09-.11-.11-.06-.03-.11-.03-.2-.03-.11,0-.2,.03-.26,.06-.09,.06-.11,.11-.14,.17-.03,.09-.06,.17-.06,.26v1.08h-.34v-1.81h.34v.26Z"/><path class="e" d="M136.37,208.21h-.34v-1.81h.34v1.81Zm-.17-2.89c.06,0,.11,.03,.17,.09,.03,.06,.06,.11,.06,.17s-.03,.11-.06,.17c-.06,.03-.11,.06-.17,.06-.09,0-.14-.03-.17-.06-.06-.06-.09-.11-.09-.17s.03-.11,.09-.17c.03-.06,.09-.09,.17-.09h0Z"/><polygon class="e" points="137.31 208.21 136.97 208.21 136.97 206.71 136.77 206.71 136.77 206.4 136.97 206.4 136.97 205.72 137.31 205.72 137.31 206.4 137.65 206.4 137.65 206.71 137.31 206.71 137.31 208.21"/><path class="e" d="M138.27,208.21h-.34v-1.81h.34v1.81Zm-.17-2.89c.06,0,.11,.03,.17,.09,.03,.06,.06,.11,.06,.17s-.03,.11-.06,.17c-.06,.03-.11,.06-.17,.06-.09,0-.14-.03-.17-.06-.06-.06-.09-.11-.09-.17s.03-.11,.09-.17c.03-.06,.09-.09,.17-.09h0Z"/><path class="e" d="M139.61,207.96c.09,0,.17-.03,.26-.06,.06-.03,.11-.09,.17-.14,.06-.06,.09-.11,.11-.2,.03-.09,.06-.17,.06-.26s-.03-.17-.06-.26c-.03-.09-.06-.14-.11-.2s-.11-.11-.17-.14c-.09-.03-.17-.06-.26-.06s-.17,.03-.26,.06c-.06,.03-.11,.09-.17,.14s-.09,.14-.11,.2c-.03,.09-.03,.17-.03,.26s0,.17,.03,.23c.03,.09,.06,.17,.11,.23,.06,.06,.11,.11,.17,.14,.09,.03,.17,.06,.26,.06h0Zm.91,.26h-.34v-.28h0c-.09,.09-.17,.17-.26,.23-.11,.09-.23,.11-.37,.11s-.26-.03-.37-.09c-.11-.06-.2-.11-.26-.23-.09-.09-.14-.17-.17-.31-.06-.11-.06-.23-.06-.37,0-.11,0-.23,.06-.34,.03-.11,.09-.23,.17-.31,.06-.09,.14-.14,.26-.2,.11-.06,.23-.09,.37-.09,.11,0,.26,.03,.34,.11,.11,.06,.2,.14,.28,.26h0v-.31h.34v1.81Z"/><polygon class="e" points="141.36 208.21 141.02 208.21 141.02 206.71 140.83 206.71 140.83 206.4 141.02 206.4 141.02 205.72 141.36 205.72 141.36 206.4 141.7 206.4 141.7 206.71 141.36 206.71 141.36 208.21"/><path class="e" d="M143.12,207.11c0-.14-.06-.26-.14-.34s-.2-.11-.34-.11-.26,.03-.34,.11c-.11,.09-.17,.2-.17,.34h.99Zm-1.02,.26c0,.09,.03,.14,.03,.23,.03,.06,.09,.14,.11,.17,.06,.06,.11,.11,.17,.14,.09,.03,.14,.06,.23,.06,.14,0,.26-.03,.34-.09,.06-.09,.14-.17,.2-.26l.31,.14c-.09,.17-.23,.28-.37,.37-.14,.09-.31,.14-.48,.14-.14,0-.26-.03-.37-.09-.11-.03-.2-.11-.28-.2-.06-.09-.14-.17-.17-.28-.03-.14-.06-.26-.06-.4s0-.26,.06-.37c.03-.11,.09-.23,.17-.31,.06-.09,.14-.17,.26-.2,.11-.06,.26-.09,.4-.09s.26,.03,.37,.09c.11,.06,.2,.11,.26,.2,.09,.09,.14,.2,.17,.31,.03,.11,.06,.23,.06,.37v.06h-1.39Z"/><path class="e" d="M145.87,206.28c.06-.03,.09-.06,.11-.09,.06-.03,.09-.06,.11-.11,.06-.03,.09-.06,.09-.11,.03-.03,.06-.09,.06-.14,0-.09-.06-.17-.11-.23s-.14-.09-.23-.09c-.11,0-.17,.03-.23,.09-.09,.06-.11,.14-.11,.23s.03,.14,.06,.2c.03,.06,.09,.11,.11,.17l.11,.11,.03-.03Zm-.14,.51c-.06,.03-.11,.09-.17,.11-.06,.03-.11,.09-.17,.14-.06,.06-.11,.11-.14,.17s-.06,.11-.06,.2c0,.06,.03,.11,.06,.2,.03,.06,.06,.11,.11,.17,.06,.03,.11,.09,.17,.11,.06,.03,.14,.03,.2,.03s.14,0,.2-.03l.17-.09c.06-.03,.11-.09,.17-.11,.03-.06,.09-.11,.14-.14l-.65-.79-.03,.03Zm.88,1.02c-.11,.11-.23,.23-.37,.31-.17,.09-.31,.14-.48,.14-.14,0-.26-.03-.37-.06-.09-.06-.2-.11-.28-.2-.06-.06-.14-.17-.17-.26-.06-.11-.09-.23-.09-.34s.03-.2,.06-.26c.03-.09,.06-.14,.09-.2l.17-.17c.06-.06,.14-.11,.2-.17l.17-.11c-.06-.09-.14-.2-.2-.28-.09-.11-.11-.23-.11-.37,0-.09,.03-.17,.06-.26,.03-.09,.09-.14,.14-.2,.06-.06,.14-.11,.2-.14,.09-.03,.17-.03,.28-.03,.09,0,.17,0,.26,.03s.14,.09,.2,.14c.06,.03,.11,.11,.17,.17,.03,.09,.03,.17,.03,.26s0,.17-.03,.23c-.03,.09-.09,.14-.14,.2-.03,.06-.09,.11-.17,.17-.06,.06-.11,.09-.17,.14l.6,.74,.34-.4,.23,.23-.34,.43,.51,.65h-.45l-.31-.4Z"/><polygon class="e" points="149.07 208.21 148.71 208.21 148.71 206.71 148.54 206.71 148.54 206.4 148.71 206.4 148.71 205.72 149.07 205.72 149.07 206.4 149.41 206.4 149.41 206.71 149.07 206.71 149.07 208.21"/><path class="e" d="M150.01,208.21h-.34v-1.81h.34v1.81Zm-.17-2.89c.09,0,.14,.03,.17,.09,.06,.06,.09,.11,.09,.17s-.03,.11-.09,.17c-.03,.03-.09,.06-.17,.06-.06,0-.11-.03-.17-.06-.03-.06-.06-.11-.06-.17s.03-.11,.06-.17c.06-.06,.11-.09,.17-.09h0Z"/><polygon class="e" points="150.97 208.21 150.63 208.21 150.63 206.71 150.43 206.71 150.43 206.4 150.63 206.4 150.63 205.72 150.97 205.72 150.97 206.4 151.31 206.4 151.31 206.71 150.97 206.71 150.97 208.21"/><path class="e" d="M151.88,206.68h0c.03-.09,.11-.17,.2-.26,.09-.06,.17-.09,.28-.09,.06,0,.11,0,.17,.03,.03,0,.09,.03,.11,.06l-.14,.31s-.06-.03-.11-.06h-.11c-.09,0-.17,.03-.23,.06-.06,.03-.09,.09-.11,.14-.03,.06-.06,.14-.06,.23v1.11h-.37v-1.81h.37v.28Z"/><path class="e" d="M153.64,207.96c.09,0,.17-.03,.26-.06,.06-.03,.11-.09,.17-.14,.06-.06,.09-.11,.11-.2,.03-.09,.03-.17,.03-.26s0-.17-.03-.26-.06-.14-.11-.2c-.06-.06-.11-.11-.2-.14-.06-.03-.14-.06-.23-.06-.11,0-.17,.03-.26,.06-.06,.03-.11,.09-.17,.14-.06,.06-.09,.14-.11,.2-.03,.09-.03,.17-.03,.26s0,.17,.03,.23c.03,.09,.06,.17,.11,.23,.03,.06,.11,.11,.17,.14,.09,.03,.14,.06,.26,.06h0Zm.91,.26h-.34v-.28h-.03c-.06,.09-.14,.17-.26,.23-.09,.09-.23,.11-.34,.11-.14,0-.26-.03-.37-.09-.11-.06-.2-.11-.28-.23-.06-.09-.11-.17-.17-.31-.03-.11-.06-.23-.06-.37,0-.11,.03-.23,.06-.34,.06-.11,.11-.23,.17-.31,.09-.09,.17-.14,.28-.2,.11-.06,.23-.09,.34-.09,.14,0,.26,.03,.37,.11,.11,.06,.2,.14,.26,.26h.03v-.31h.34v1.81Z"/><polygon class="e" points="155.4 208.21 155.06 208.21 155.06 206.71 154.86 206.71 154.86 206.4 155.06 206.4 155.06 205.72 155.4 205.72 155.4 206.4 155.74 206.4 155.74 206.71 155.4 206.71 155.4 208.21"/><path class="e" d="M157.15,207.11c-.03-.14-.09-.26-.17-.34-.09-.09-.2-.11-.31-.11-.14,0-.26,.03-.37,.11-.09,.09-.14,.2-.17,.34h1.02Zm-1.02,.26c0,.09,0,.14,.03,.23,.03,.06,.06,.14,.11,.17,.06,.06,.11,.11,.17,.14,.06,.03,.14,.06,.23,.06,.14,0,.23-.03,.31-.09,.09-.09,.17-.17,.23-.26l.28,.14c-.09,.17-.2,.28-.34,.37-.14,.09-.31,.14-.48,.14-.14,0-.26-.03-.37-.09-.11-.03-.2-.11-.28-.2s-.14-.17-.17-.28c-.06-.14-.06-.26-.06-.4s0-.26,.03-.37c.06-.11,.11-.23,.17-.31,.09-.09,.17-.17,.28-.2,.11-.06,.23-.09,.4-.09,.14,0,.26,.03,.37,.09,.09,.06,.2,.11,.26,.2,.06,.09,.11,.2,.14,.31,.06,.11,.06,.23,.06,.37v.06h-1.36Z"/><path class="e" d="M159.82,205.21c-.06-.03-.09-.03-.11-.06-.06,0-.09-.03-.14-.03s-.09,.03-.14,.06c-.03,.03-.06,.09-.06,.14-.03,.06-.03,.09-.03,.14v.94h.48v.31h-.48v1.5h-.37v-1.5h-.14v-.31h.14v-.88c0-.09,.03-.2,.06-.28,0-.09,.03-.14,.09-.23,.03-.06,.09-.11,.17-.14s.17-.06,.28-.06c.09,0,.17,.03,.26,.06v.34Z"/><path class="e" d="M160.78,206.68c-.09,0-.17,0-.26,.06-.06,.03-.14,.06-.2,.11-.06,.06-.09,.14-.11,.2-.03,.09-.06,.17-.06,.26s.03,.17,.06,.23c.03,.09,.06,.14,.11,.23,.06,.06,.14,.09,.2,.11,.09,.06,.17,.06,.26,.06s.17,0,.23-.06c.09-.03,.14-.06,.2-.11,.06-.09,.11-.14,.14-.23,.03-.06,.03-.14,.03-.23s0-.17-.03-.26c-.03-.06-.09-.14-.14-.2s-.11-.09-.2-.11c-.06-.06-.14-.06-.23-.06h0Zm0-.34c.11,0,.26,.03,.37,.09,.11,.03,.23,.11,.31,.2s.14,.17,.2,.31c.06,.11,.09,.23,.09,.37s-.03,.26-.09,.37c-.06,.11-.11,.23-.2,.31s-.2,.17-.31,.2c-.11,.06-.26,.09-.37,.09-.14,0-.28-.03-.4-.09-.11-.03-.2-.11-.28-.2s-.17-.2-.23-.31c-.03-.11-.06-.23-.06-.37s.03-.26,.06-.37c.06-.14,.14-.23,.23-.31s.17-.17,.28-.2c.11-.06,.26-.09,.4-.09h0Z"/><path class="e" d="M162.43,206.68h0c.06-.09,.11-.17,.2-.26,.09-.06,.2-.09,.31-.09,.06,0,.09,0,.14,.03,.06,0,.09,.03,.14,.06l-.17,.31s-.06-.03-.09-.06h-.11c-.11,0-.17,.03-.23,.06-.06,.03-.11,.09-.14,.14-.03,.06-.03,.14-.06,.23v1.11h-.34v-1.81h.34v.28Z"/><path class="e" d="M165.29,207.96c.11,0,.2-.03,.26-.06,.09-.03,.14-.09,.2-.14,.03-.06,.09-.11,.11-.2,.03-.09,.03-.17,.03-.26s0-.17-.03-.26-.09-.14-.11-.2c-.06-.06-.11-.11-.2-.14-.09-.03-.14-.06-.26-.06-.09,0-.17,.03-.23,.06-.09,.03-.14,.09-.2,.14-.03,.06-.09,.14-.09,.2-.03,.09-.06,.17-.06,.26s.03,.17,.06,.23c0,.09,.06,.17,.09,.23,.06,.06,.11,.11,.2,.14,.06,.03,.14,.06,.23,.06h0Zm.94,.26h-.37v-.28h0c-.06,.09-.14,.17-.26,.23-.11,.09-.23,.11-.37,.11-.11,0-.26-.03-.37-.09-.09-.06-.2-.11-.26-.23-.09-.09-.14-.17-.17-.31-.03-.11-.06-.23-.06-.37,0-.11,.03-.23,.06-.34s.09-.23,.17-.31c.09-.09,.17-.14,.26-.2,.11-.06,.23-.09,.37-.09s.26,.03,.37,.11c.09,.06,.17,.14,.26,.26h0v-.31h.37v1.81Z"/><path class="e" d="M167.02,206.65h0c.06-.11,.14-.17,.23-.23,.11-.06,.2-.09,.31-.09,.14,0,.23,.03,.31,.06,.09,.06,.14,.11,.2,.17,.06,.09,.09,.14,.11,.26,0,.09,.03,.2,.03,.31v1.08h-.37v-1.25c0-.06-.03-.11-.06-.17-.03-.06-.06-.09-.11-.11-.06-.03-.11-.03-.23-.03s-.2,.03-.26,.06c-.06,.06-.09,.11-.11,.17-.03,.09-.06,.17-.06,.26v1.08h-.37v-1.81h.37v.26Z"/><path class="e" d="M170.59,206.68c-.09,0-.17,0-.23,.06-.09,.03-.14,.06-.2,.11s-.11,.14-.14,.2c-.03,.09-.06,.17-.06,.26s.03,.17,.06,.23c.03,.09,.09,.14,.14,.23,.06,.06,.11,.09,.2,.11,.06,.06,.14,.06,.23,.06s.17,0,.26-.06c.06-.03,.14-.06,.2-.11,.03-.09,.09-.14,.11-.23,.03-.06,.06-.14,.06-.23s-.03-.17-.06-.26c-.03-.06-.09-.14-.11-.2-.06-.06-.14-.09-.2-.11-.09-.06-.17-.06-.26-.06h0Zm0-.34c.14,0,.26,.03,.37,.09,.14,.03,.23,.11,.31,.2s.17,.17,.2,.31c.06,.11,.09,.23,.09,.37s-.03,.26-.09,.37c-.03,.11-.11,.23-.2,.31s-.17,.17-.31,.2c-.11,.06-.23,.09-.37,.09s-.26-.03-.37-.09c-.11-.03-.23-.11-.31-.2s-.14-.2-.2-.31c-.06-.11-.09-.23-.09-.37s.03-.26,.09-.37c.06-.14,.11-.23,.2-.31s.2-.17,.31-.2c.11-.06,.23-.09,.37-.09h0Z"/><path class="e" d="M172.74,207.96c.09,0,.17-.03,.26-.06,.06-.03,.11-.09,.17-.14,.06-.06,.09-.11,.11-.2,.03-.09,.06-.17,.06-.26s-.03-.17-.06-.26c-.03-.09-.06-.14-.11-.2s-.11-.11-.17-.14c-.09-.03-.17-.06-.26-.06s-.17,.03-.26,.06c-.06,.03-.11,.09-.17,.14s-.09,.14-.11,.2c-.03,.09-.03,.17-.03,.26s0,.17,.03,.23c.03,.09,.06,.17,.11,.23,.06,.06,.11,.11,.17,.14,.09,.03,.17,.06,.26,.06h0Zm-.54-1.25h0c.06-.11,.14-.2,.26-.26,.11-.09,.23-.11,.37-.11s.26,.03,.34,.09c.11,.06,.2,.11,.28,.2,.06,.09,.11,.2,.17,.31,.03,.11,.06,.23,.06,.34,0,.14-.03,.26-.06,.37-.06,.14-.11,.23-.17,.31-.09,.11-.17,.17-.28,.23-.09,.06-.23,.09-.37,.09-.11,0-.23-.03-.34-.11-.11-.06-.2-.14-.26-.23h0v1.3h-.37v-2.83h.37v.31Z"/><polygon class="e" points="174.42 208.21 174.08 208.21 174.08 206.71 173.88 206.71 173.88 206.4 174.08 206.4 174.08 205.72 174.42 205.72 174.42 206.4 174.76 206.4 174.76 206.71 174.42 206.71 174.42 208.21"/><path class="e" d="M175.35,208.21h-.34v-1.81h.34v1.81Zm-.17-2.89c.09,0,.14,.03,.17,.09,.06,.06,.09,.11,.09,.17s-.03,.11-.09,.17c-.03,.03-.09,.06-.17,.06-.06,0-.11-.03-.17-.06-.03-.06-.06-.11-.06-.17s.03-.11,.06-.17c.06-.06,.11-.09,.17-.09h0Z"/><path class="e" d="M176.26,206.62h0c.06-.09,.11-.14,.2-.2,.09-.06,.17-.09,.28-.09s.23,.03,.31,.09c.09,.06,.14,.14,.2,.23,.06-.09,.14-.17,.26-.23,.09-.06,.2-.09,.31-.09s.2,.03,.28,.06c.09,.06,.14,.11,.2,.17l.09,.26c.03,.11,.03,.2,.03,.31v1.08h-.34v-1.02c0-.06,0-.11-.03-.2,0-.06,0-.11-.03-.17-.03-.06-.06-.09-.11-.11-.03-.03-.09-.06-.17-.06s-.17,.03-.23,.06c-.06,.06-.09,.11-.11,.17-.03,.06-.06,.14-.06,.23v1.11h-.34v-.96c0-.06,0-.11-.03-.2,0-.06,0-.14-.03-.2-.03-.06-.06-.09-.09-.14-.06-.03-.11-.06-.2-.06s-.17,.03-.23,.06c-.06,.06-.09,.11-.11,.17-.03,.06-.06,.14-.06,.23v1.11h-.34v-1.81h.34v.23Z"/><path class="e" d="M179.66,207.96c.09,0,.17-.03,.26-.06,.06-.03,.11-.09,.17-.14,.06-.06,.09-.11,.11-.2,.03-.09,.03-.17,.03-.26s0-.17-.03-.26-.06-.14-.11-.2c-.06-.06-.11-.11-.2-.14-.06-.03-.14-.06-.23-.06s-.17,.03-.26,.06c-.06,.03-.11,.09-.17,.14-.06,.06-.09,.14-.11,.2-.03,.09-.03,.17-.03,.26s0,.17,.03,.23c.03,.09,.06,.17,.11,.23,.03,.06,.11,.11,.17,.14,.09,.03,.14,.06,.26,.06h0Zm.91,.26h-.34v-.28h-.03c-.06,.09-.14,.17-.26,.23-.09,.09-.23,.11-.34,.11-.14,0-.26-.03-.37-.09-.11-.06-.2-.11-.28-.23-.06-.09-.11-.17-.17-.31-.03-.11-.06-.23-.06-.37,0-.11,.03-.23,.06-.34,.06-.11,.11-.23,.17-.31,.09-.09,.17-.14,.28-.2,.11-.06,.23-.09,.34-.09,.14,0,.26,.03,.37,.11,.11,.06,.2,.14,.26,.26h.03v-.31h.34v1.81Z"/><rect class="e" x="181.02" y="204.87" width=".37" height="3.34"/><path class="e" d="M183.77,207.96c.09,0,.17-.03,.23-.06,.09-.03,.14-.09,.2-.14s.09-.11,.11-.2c.03-.09,.03-.17,.03-.26s0-.17-.03-.26c-.03-.09-.06-.14-.11-.2-.06-.06-.11-.11-.2-.14-.06-.03-.14-.06-.23-.06-.11,0-.17,.03-.26,.06-.06,.03-.11,.09-.17,.14-.06,.06-.09,.14-.11,.2-.03,.09-.03,.17-.03,.26s0,.17,.03,.23c.03,.09,.06,.17,.11,.23,.03,.06,.11,.11,.17,.14,.06,.03,.14,.06,.26,.06h0Zm.91,.2c0,.17-.03,.31-.06,.45,0,.11-.06,.23-.11,.31-.09,.11-.17,.17-.28,.23-.11,.06-.26,.09-.43,.09-.14,0-.26-.03-.34-.06-.11-.03-.2-.09-.28-.17-.09-.06-.14-.14-.17-.26-.06-.09-.09-.2-.09-.34h.34c0,.17,.06,.28,.17,.4,.09,.09,.23,.11,.37,.11,.11,0,.2,0,.28-.06,.06-.03,.11-.06,.14-.14,.03-.06,.06-.11,.09-.2,0-.09,.03-.17,.03-.26v-.34h-.03c-.06,.09-.14,.17-.26,.23-.11,.09-.23,.11-.34,.11-.14,0-.28-.03-.37-.09-.11-.06-.2-.11-.28-.23-.06-.09-.11-.17-.17-.31-.03-.11-.06-.23-.06-.37,0-.11,.03-.23,.06-.34,.06-.11,.11-.23,.17-.31,.09-.09,.17-.14,.28-.2,.09-.06,.23-.09,.34-.09,.14,0,.26,.03,.37,.11,.11,.06,.2,.14,.26,.26h.03v-.31h.34v1.76Z"/><rect class="e" x="185.13" y="204.87" width=".37" height="3.34"/><polygon class="e" points="185.7 206.4 186.09 206.4 186.69 207.53 187.26 206.4 187.65 206.4 186.21 209.23 185.81 209.23 186.52 207.9 185.7 206.4"/><path class="e" d="M189.16,206.91c-.11-.17-.31-.23-.51-.23-.09,0-.14,0-.23,.03-.09,.06-.14,.09-.2,.14-.06,.06-.09,.14-.11,.2-.03,.09-.06,.17-.06,.26s.03,.17,.06,.26c.03,.09,.06,.14,.11,.2s.14,.11,.2,.14c.09,.03,.17,.03,.26,.03,.11,0,.2,0,.28-.06,.09-.03,.14-.09,.2-.17v.45c-.06,.03-.14,.06-.23,.09-.09,.03-.17,.03-.26,.03-.14,0-.26-.03-.37-.09-.11-.03-.23-.11-.31-.2s-.17-.17-.2-.28c-.06-.11-.09-.26-.09-.4s.03-.26,.06-.37c.06-.14,.14-.23,.23-.31s.2-.17,.31-.2c.11-.06,.26-.09,.4-.09,.09,0,.14,0,.23,.03,.09,.03,.17,.06,.23,.09v.45Z"/><path class="e" d="M190.77,207.11c0-.14-.06-.26-.14-.34-.09-.09-.2-.11-.34-.11s-.26,.03-.34,.11c-.11,.09-.17,.2-.17,.34h.99Zm-1.02,.26c0,.09,0,.14,.03,.23,.03,.06,.09,.14,.11,.17,.06,.06,.11,.11,.17,.14,.09,.03,.14,.06,.23,.06,.14,0,.26-.03,.31-.09,.09-.09,.17-.17,.23-.26l.31,.14c-.09,.17-.23,.28-.37,.37s-.31,.14-.48,.14c-.14,0-.26-.03-.37-.09-.11-.03-.2-.11-.28-.2-.09-.09-.14-.17-.17-.28-.03-.14-.06-.26-.06-.4s0-.26,.06-.37c.03-.11,.09-.23,.17-.31,.06-.09,.14-.17,.26-.2,.11-.06,.26-.09,.4-.09s.26,.03,.37,.09c.11,.06,.2,.11,.26,.2,.09,.09,.11,.2,.17,.31,.03,.11,.06,.23,.06,.37v.06h-1.39Z"/><path class="e" d="M191.76,206.62h0c.06-.09,.11-.14,.2-.2,.09-.06,.2-.09,.28-.09,.11,0,.23,.03,.31,.09,.09,.06,.14,.14,.2,.23,.06-.09,.14-.17,.26-.23,.09-.06,.2-.09,.31-.09s.23,.03,.28,.06c.09,.06,.14,.11,.2,.17l.09,.26c.03,.11,.03,.2,.03,.31v1.08h-.34v-1.02c0-.06,0-.11-.03-.2,0-.06,0-.11-.03-.17-.03-.06-.06-.09-.11-.11-.03-.03-.09-.06-.17-.06s-.17,.03-.23,.06c-.06,.06-.09,.11-.11,.17-.03,.06-.06,.14-.06,.23v1.11h-.34v-.96c0-.06,0-.11-.03-.2,0-.06,0-.14-.03-.2-.03-.06-.06-.09-.09-.14-.06-.03-.11-.06-.2-.06s-.17,.03-.23,.06c-.06,.06-.09,.11-.11,.17-.03,.06-.06,.14-.06,.23v1.11h-.34v-1.81h.34v.23Z"/><path class="e" d="M194.8,208.21h-.34v-1.81h.34v1.81Zm-.17-2.89c.06,0,.11,.03,.17,.09s.09,.11,.09,.17-.03,.11-.09,.17c-.06,.03-.11,.06-.17,.06s-.11-.03-.17-.06c-.03-.06-.06-.11-.06-.17s.03-.11,.06-.17c.06-.06,.11-.09,.17-.09h0Z"/><path class="e" d="M196.7,206.91c-.14-.17-.31-.23-.54-.23-.09,0-.14,0-.23,.03-.09,.06-.14,.09-.2,.14-.06,.06-.09,.14-.11,.2-.03,.09-.06,.17-.06,.26s.03,.17,.06,.26c.03,.09,.06,.14,.11,.2s.14,.11,.2,.14c.09,.03,.17,.03,.26,.03,.11,0,.2,0,.28-.06,.09-.03,.14-.09,.23-.17v.45l-.26,.09c-.09,.03-.17,.03-.26,.03-.14,0-.26-.03-.37-.09-.11-.03-.23-.11-.31-.2s-.17-.17-.2-.28c-.06-.11-.09-.26-.09-.4s.03-.26,.09-.37c.03-.14,.11-.23,.2-.31s.2-.17,.31-.2c.11-.06,.26-.09,.4-.09,.09,0,.17,0,.26,.03,.06,.03,.14,.06,.23,.09v.45Z"/><path class="e" d="M199.5,206.91c-.14-.17-.31-.23-.51-.23-.09,0-.17,0-.26,.03-.06,.06-.14,.09-.17,.14-.06,.06-.11,.14-.14,.2-.03,.09-.06,.17-.06,.26s.03,.17,.06,.26c.03,.09,.09,.14,.14,.2,.06,.06,.11,.11,.2,.14,.06,.03,.14,.03,.23,.03,.11,0,.2,0,.28-.06,.09-.03,.14-.09,.23-.17v.45l-.26,.09c-.09,.03-.17,.03-.26,.03-.11,0-.26-.03-.37-.09-.11-.03-.23-.11-.31-.2s-.14-.17-.2-.28c-.06-.11-.09-.26-.09-.4s.03-.26,.09-.37c.06-.14,.11-.23,.2-.31s.2-.17,.31-.2c.14-.06,.26-.09,.4-.09,.09,0,.17,0,.26,.03,.09,.03,.14,.06,.23,.09v.45Z"/><path class="e" d="M200.66,206.68c-.09,0-.17,0-.23,.06-.09,.03-.14,.06-.2,.11s-.11,.14-.14,.2c-.03,.09-.03,.17-.03,.26s0,.17,.03,.23c.03,.09,.09,.14,.14,.23,.06,.06,.11,.09,.2,.11,.06,.06,.14,.06,.23,.06s.17,0,.26-.06c.06-.03,.14-.06,.2-.11,.06-.09,.09-.14,.11-.23,.03-.06,.06-.14,.06-.23s-.03-.17-.06-.26c-.03-.06-.06-.14-.11-.2-.06-.06-.14-.09-.2-.11-.09-.06-.17-.06-.26-.06h0Zm0-.34c.14,0,.26,.03,.4,.09,.11,.03,.2,.11,.28,.2s.17,.17,.23,.31c.03,.11,.06,.23,.06,.37s-.03,.26-.06,.37c-.06,.11-.14,.23-.23,.31s-.17,.17-.28,.2c-.14,.06-.26,.09-.4,.09s-.26-.03-.37-.09c-.11-.03-.23-.11-.31-.2s-.14-.2-.2-.31c-.06-.11-.09-.23-.09-.37s.03-.26,.09-.37c.06-.14,.11-.23,.2-.31s.2-.17,.31-.2c.11-.06,.23-.09,.37-.09h0Z"/><path class="e" d="M202.31,206.65h0c.06-.11,.14-.17,.23-.23,.11-.06,.2-.09,.31-.09,.14,0,.23,.03,.31,.06,.09,.06,.14,.11,.2,.17,.06,.09,.09,.14,.11,.26,0,.09,.03,.2,.03,.31v1.08h-.37v-1.25c0-.06-.03-.11-.06-.17-.03-.06-.06-.09-.11-.11-.06-.03-.11-.03-.23-.03s-.2,.03-.26,.06c-.06,.06-.09,.11-.11,.17-.03,.09-.06,.17-.06,.26v1.08h-.37v-1.81h.37v.26Z"/><polygon class="e" points="204.38 208.21 204.01 208.21 204.01 206.71 203.84 206.71 203.84 206.4 204.01 206.4 204.01 205.72 204.38 205.72 204.38 206.4 204.72 206.4 204.72 206.71 204.38 206.71 204.38 208.21"/><path class="e" d="M205.26,206.68h.03c.03-.09,.09-.17,.17-.26,.09-.06,.2-.09,.31-.09,.06,0,.11,0,.14,.03,.06,0,.11,.03,.14,.06l-.14,.31c-.06-.03-.09-.03-.11-.06h-.11c-.09,0-.17,.03-.23,.06-.06,.03-.09,.09-.11,.14-.03,.06-.06,.14-.06,.23-.03,.06-.03,.14-.03,.2v.91h-.34v-1.81h.34v.28Z"/><path class="e" d="M207.04,206.68c-.09,0-.17,0-.23,.06-.09,.03-.14,.06-.2,.11-.06,.06-.11,.14-.14,.2-.03,.09-.06,.17-.06,.26s.03,.17,.06,.23c.03,.09,.09,.14,.14,.23,.06,.06,.11,.09,.2,.11,.06,.06,.14,.06,.23,.06s.17,0,.26-.06c.06-.03,.14-.06,.2-.11,.06-.09,.09-.14,.11-.23,.03-.06,.06-.14,.06-.23s-.03-.17-.06-.26c-.03-.06-.06-.14-.11-.2-.06-.06-.14-.09-.2-.11-.09-.06-.17-.06-.26-.06h0Zm0-.34c.14,0,.26,.03,.37,.09,.14,.03,.23,.11,.31,.2s.17,.17,.2,.31c.06,.11,.09,.23,.09,.37s-.03,.26-.09,.37c-.03,.11-.11,.23-.2,.31s-.17,.17-.31,.2c-.11,.06-.23,.09-.37,.09s-.26-.03-.37-.09c-.11-.03-.23-.11-.31-.2-.09-.09-.14-.2-.2-.31-.06-.11-.09-.23-.09-.37s.03-.26,.09-.37c.06-.14,.11-.23,.2-.31,.09-.09,.2-.17,.31-.2,.11-.06,.23-.09,.37-.09h0Z"/><rect class="e" x="208.35" y="204.87" width=".34" height="3.34"/></svg>