<?xml version="1.0" encoding="UTF-8"?><svg id="a" xmlns="http://www.w3.org/2000/svg" width="120" height="129" viewBox="0 0 86.3 92.98"><defs><style>.b{fill:none;stroke:#4d2c88;stroke-miterlimit:10;stroke-width:.99px;}.c{fill:#66b032;}.d{fill:#fff;fill-rule:evenodd;}</style></defs><path class="c" d="M5.37,14.54C9.71,10.03,14.87,6.49,20.48,4,26.43,1.39,32.9,0,39.53,0c5.07,0,10.12,.82,14.94,2.44,4.79,1.59,9.33,3.94,13.41,6.97l-2.78,3.74c-3.71-2.78-7.8-4.9-12.1-6.32-4.28-1.45-8.84-2.18-13.46-2.18-5.98,0-11.85,1.25-17.18,3.6-5.3,2.32-10.12,5.75-14.14,10.06l-2.83-3.77Z"/><path class="c" d="M67.99,10.23c5.78,4.45,10.35,10.09,13.49,16.44,3.15,6.35,4.82,13.44,4.82,20.69,0,1.11-.03,2.21-.11,3.34-.09,1.11-.2,2.21-.37,3.34l-3.43-.51c.14-1.02,.26-2.04,.31-3.09,.09-.99,.11-2.04,.11-3.09,0-6.75-1.56-13.27-4.45-19.16-2.92-5.87-7.14-11.08-12.47-15.19l2.1-2.78Z"/><path class="c" d="M85.14,54.71c-1.47,9.13-5.58,17.38-11.59,23.92-5.98,6.52-13.86,11.31-22.82,13.55l-.57-2.24c8.5-2.13,15.99-6.69,21.69-12.9,5.7-6.21,9.61-14.03,11-22.71l2.3,.37Z"/><path class="c" d="M48.8,92.04c-1.5,.31-3.06,.54-4.59,.71-1.56,.17-3.12,.23-4.68,.23-6.35,0-12.53-1.3-18.23-3.8-2.64-1.13-5.16-2.55-7.54-4.17h2.1c1.9,1.19,3.86,2.21,5.9,3.12,5.56,2.41,11.59,3.69,17.77,3.69,1.53,0,3.06-.06,4.54-.23,1.53-.14,3.03-.37,4.51-.68l.23,1.13Z"/><path class="d" d="M39.5,9.21c21.51,0,38.98,17.46,38.98,39s-17.46,38.98-38.98,38.98S.5,69.73,.5,48.22,17.96,9.21,39.5,9.21h0Z"/><path class="b" d="M39.5,9.21c21.51,0,38.98,17.46,38.98,39s-17.46,38.98-38.98,38.98S.5,69.73,.5,48.22,17.96,9.21,39.5,9.21h0Z"/></svg>