<?xml version="1.0" encoding="UTF-8"?><svg id="a" xmlns="http://www.w3.org/2000/svg" viewBox="0 0 32.1 50.32"><defs><style>.b{fill:#66b032;fill-rule:evenodd;}</style></defs><path class="b" d="M13.25,25.26l-.96,.03c-.2-.99-.06-15.79-.06-18.09,0-4.51-5.5-4.45-5.53-.14-.03,2.58,.14,17.01-.06,18.2l-.96,.03c-.48-2.27,.26-11.23-.23-12.7-.74-2.21-4.11-2.61-5.16-.17-.4,.96-.2,11.42-.2,12.93,0,3.97-.45,13.83,.57,16.89,1.33,3.94,4.85,7.31,9.47,7.91,2.38,.31,6.04,.11,8.56,.11,3.29,0,4.73-.23,7.23-1.56,4.39-2.32,6.15-6.35,6.15-11.28v-13.07c0-1.5,.2-2.78-.62-3.77-1.64-1.93-4.79-.91-4.9,1.79-.09,2.21,.31,6.83-.06,8.67l-.96-.03c-.28-1.47-.06-5.36-.06-7.09V9.58c0-2.01,.48-5.19-.74-6.46-1.3-1.39-3.91-1.13-4.62,.88-.51,1.42,.14,19.39-.23,21.29h-.99c-.2-1.25-.06-18.17-.06-20.89C18.84,2.92,19.04,.09,16.14,0c-2.81-.06-2.81,2.58-2.83,4.25,0,2.72,.17,19.87-.06,21h0Z"/></svg>